{"glyphs":{"0":{"ha":863,"x_min":0,"x_max":0,"o":"m 432 972 b 54 479 235 972 54 746 b 432 -14 54 213 235 -14 b 808 479 628 -14 808 213 b 432 972 808 746 628 972 z m 432 47 b 238 479 319 47 238 247 b 432 911 238 713 319 911 b 625 479 543 911 625 713 b 432 47 625 247 543 47 z "},"1":{"ha":625,"x_min":0,"x_max":0,"o":"m 417 972 l 14 754 l 246 754 l 246 68 l 69 68 l 69 0 l 594 0 l 594 68 l 417 68 z "},"2":{"ha":733,"x_min":0,"x_max":0,"o":"m 614 0 l 718 156 l 235 156 l 235 176 b 639 707 446 351 639 521 b 378 972 639 854 538 972 b 36 669 213 972 86 851 b 290 825 104 761 175 825 b 479 631 410 825 479 747 b 0 0 479 453 271 265 z "},"3":{"ha":696,"x_min":0,"x_max":0,"o":"m 276 38 l 110 196 b 35 97 64 179 35 138 b 203 -14 35 33 103 -14 b 656 328 429 -14 656 144 b 375 558 656 460 540 535 l 375 576 b 597 796 494 621 597 683 b 382 972 597 890 514 972 b 63 731 218 972 104 850 b 279 843 115 790 186 843 b 421 722 363 843 421 801 b 139 460 421 617 315 551 b 493 253 356 460 493 385 b 276 38 493 132 378 56 z "},"4":{"ha":900,"x_min":0,"x_max":0,"o":"m 757 0 l 757 67 l 619 67 l 619 301 l 818 301 l 892 386 l 619 386 l 619 972 l 19 301 l 460 301 l 460 67 l 322 67 l 322 0 z m 460 386 l 172 386 l 460 708 z "},"5":{"ha":704,"x_min":0,"x_max":0,"o":"m 201 626 l 231 797 l 574 797 l 651 958 l 215 958 l 117 489 b 489 272 358 513 489 429 b 272 39 489 129 375 58 l 107 196 b 32 97 61 179 32 138 b 197 -14 32 33 97 -14 b 638 356 421 -14 638 146 b 201 626 638 556 435 646 z "},"6":{"ha":797,"x_min":0,"x_max":0,"o":"m 410 -14 b 736 307 593 -14 736 133 b 460 585 736 460 622 585 b 283 517 383 585 329 554 l 260 517 b 763 972 324 719 499 868 b 60 371 353 958 60 675 b 410 -14 60 154 211 -14 z m 233 338 b 247 471 233 385 238 429 b 350 499 274 486 310 499 b 579 249 476 499 579 396 b 424 43 579 128 518 43 b 233 338 308 43 233 169 z "},"7":{"ha":749,"x_min":0,"x_max":0,"o":"m 301 0 l 736 958 l 88 958 l 11 797 l 589 797 l 183 0 z "},"8":{"ha":778,"x_min":0,"x_max":0,"o":"m 725 263 b 510 519 725 383 622 457 l 510 543 b 693 742 617 581 693 642 b 393 972 693 874 561 972 b 90 707 219 972 90 847 b 263 478 90 601 169 535 l 263 450 b 53 231 139 407 53 338 b 388 -14 53 97 203 -14 b 725 263 575 -14 725 126 z m 235 764 b 393 915 235 850 294 915 b 560 746 496 915 560 847 b 460 546 560 661 524 597 b 235 764 344 608 235 667 z m 194 240 b 314 447 194 332 232 394 b 567 211 438 379 567 319 b 389 43 567 119 499 43 b 194 240 281 43 194 122 z "},"9":{"ha":797,"x_min":0,"x_max":0,"o":"m 388 972 b 61 651 204 972 61 825 b 338 374 61 499 175 374 b 514 442 414 374 468 404 l 538 442 b 35 -14 474 239 299 90 b 738 588 444 0 738 283 b 388 972 738 804 586 972 z m 564 621 b 550 488 564 574 560 529 b 447 460 524 472 488 460 b 218 710 321 460 218 563 b 374 915 218 831 279 915 b 564 621 489 915 564 789 z "}," ":{"ha":278,"x_min":0,"x_max":0,"o":""}," ":{"ha":278,"x_min":0,"x_max":0,"o":""},"A":{"ha":1081,"x_min":0,"x_max":0,"o":"m 401 958 l 450 839 l 128 67 l 18 67 l 18 0 l 376 0 l 376 67 l 206 67 l 322 351 l 649 351 l 764 67 l 593 67 l 593 0 l 1064 0 l 1064 67 l 953 67 l 586 958 z m 349 418 l 486 751 l 621 418 z "},"B":{"ha":946,"x_min":0,"x_max":0,"o":"m 42 958 l 42 892 l 181 892 l 181 67 l 42 67 l 42 0 l 489 0 b 889 272 732 0 889 114 b 578 510 889 429 710 501 b 822 728 710 531 822 611 b 449 958 822 883 676 958 z m 424 892 b 647 713 550 892 647 840 b 424 525 647 590 539 525 l 356 525 l 356 892 z m 356 67 l 356 464 l 454 464 b 703 271 581 464 703 414 b 464 67 703 136 597 67 z "},"C":{"ha":958,"x_min":0,"x_max":0,"o":"m 61 457 b 532 -14 61 165 292 -14 b 919 243 725 -14 867 100 b 615 118 833 160 738 118 b 238 531 421 118 238 264 b 547 900 238 754 386 900 b 893 635 706 900 803 771 l 893 972 l 788 904 b 553 972 731 940 657 972 b 61 457 310 972 61 767 z "},"D":{"ha":1104,"x_min":0,"x_max":0,"o":"m 426 958 l 42 958 l 42 892 l 181 892 l 181 67 l 42 67 l 42 0 l 440 0 b 1049 506 781 0 1049 200 b 426 958 1049 792 786 958 z m 410 892 b 857 504 688 892 857 754 b 413 67 857 239 689 67 l 356 67 l 356 892 z "},"E":{"ha":928,"x_min":0,"x_max":0,"o":"m 532 526 l 356 526 l 356 892 l 643 892 l 811 678 l 811 999 l 736 958 l 42 958 l 42 892 l 181 892 l 181 67 l 42 67 l 42 0 l 831 0 l 889 331 l 661 67 l 356 67 l 356 460 l 532 460 l 651 304 l 651 681 z "},"F":{"ha":872,"x_min":0,"x_max":0,"o":"m 532 521 l 356 521 l 356 892 l 643 892 l 811 678 l 811 999 l 736 958 l 42 958 l 42 892 l 181 892 l 181 67 l 42 67 l 42 0 l 528 0 l 528 67 l 356 67 l 356 454 l 532 454 l 651 299 l 651 675 z "},"G":{"ha":1069,"x_min":0,"x_max":0,"o":"m 739 361 l 739 76 b 636 61 710 65 674 61 b 254 504 440 61 254 232 b 565 900 254 750 390 900 b 921 635 726 900 831 771 l 921 972 l 813 904 b 563 972 753 940 669 972 b 63 465 319 972 63 772 b 586 -14 63 161 314 -14 b 1000 138 754 -14 911 46 l 913 138 l 913 361 l 1029 361 l 1029 429 l 601 429 l 601 361 z "},"H":{"ha":1201,"x_min":0,"x_max":0,"o":"m 42 958 l 42 892 l 181 892 l 181 67 l 42 67 l 42 0 l 494 0 l 494 67 l 356 67 l 356 460 l 846 460 l 846 67 l 707 67 l 707 0 l 1160 0 l 1160 67 l 1021 67 l 1021 892 l 1160 892 l 1160 958 l 707 958 l 707 892 l 846 892 l 846 526 l 356 526 l 356 892 l 494 892 l 494 958 z "},"I":{"ha":536,"x_min":0,"x_max":0,"o":"m 42 958 l 42 892 l 181 892 l 181 67 l 42 67 l 42 0 l 494 0 l 494 67 l 356 67 l 356 892 l 494 892 l 494 958 z "},"J":{"ha":529,"x_min":0,"x_max":0,"o":"m 176 57 b 88 -240 176 -94 133 -192 l -71 -144 b -136 -243 -110 -164 -136 -201 b -32 -340 -136 -299 -94 -340 b 353 32 110 -340 297 -131 l 353 892 l 490 892 l 490 958 l 39 958 l 39 892 l 176 892 z "},"K":{"ha":1042,"x_min":0,"x_max":0,"o":"m 42 958 l 42 892 l 181 892 l 181 67 l 42 67 l 42 0 l 494 0 l 494 67 l 356 67 l 356 517 l 808 0 l 1038 0 l 533 561 l 888 892 l 1015 892 l 1015 958 l 644 958 l 644 892 l 792 892 l 414 536 l 356 536 l 356 892 l 494 892 l 494 958 z "},"L":{"ha":893,"x_min":0,"x_max":0,"o":"m 181 892 l 181 67 l 42 67 l 42 0 l 811 0 l 869 331 l 643 67 l 356 67 l 356 892 l 494 892 l 494 958 l 42 958 l 42 892 z "},"M":{"ha":1350,"x_min":0,"x_max":0,"o":"m 1029 67 l 872 67 l 872 0 l 1326 0 l 1326 67 l 1201 67 l 1131 892 l 1257 892 l 1257 958 l 913 958 l 679 297 l 453 958 l 92 958 l 92 892 l 218 892 l 147 67 l 24 67 l 24 0 l 385 0 l 385 67 l 228 67 l 292 881 l 628 -51 l 957 881 z "},"N":{"ha":1088,"x_min":0,"x_max":0,"o":"m 394 0 l 394 67 l 246 67 l 246 707 l 922 -44 l 922 892 l 1060 892 l 1060 958 l 694 958 l 694 892 l 842 892 l 842 288 l 250 958 l 19 958 l 167 794 l 167 67 l 28 67 l 28 0 z "},"O":{"ha":1113,"x_min":0,"x_max":0,"o":"m 1057 479 b 557 972 1057 764 815 972 b 56 479 297 972 56 764 b 557 -14 56 194 297 -14 b 1057 479 815 -14 1057 194 z m 249 479 b 557 906 249 731 401 906 b 865 479 713 906 865 731 b 557 51 865 228 713 51 b 249 479 401 51 249 228 z "},"P":{"ha":894,"x_min":0,"x_max":0,"o":"m 42 892 l 181 892 l 181 67 l 42 67 l 42 0 l 535 0 l 535 67 l 356 67 l 356 892 l 429 892 b 681 685 574 892 681 828 b 422 471 681 557 596 476 l 535 417 b 860 682 685 419 860 508 b 453 958 860 871 689 958 l 42 958 z "},"Q":{"ha":1113,"x_min":0,"x_max":0,"o":"m 1057 479 b 557 972 1057 764 815 972 b 56 479 297 972 56 764 b 354 26 56 272 183 117 l 996 -312 l 1290 -229 l 632 -22 l 632 8 b 1057 479 860 39 1057 228 z m 249 479 b 557 906 249 731 401 906 b 865 479 713 906 865 731 b 557 51 865 228 713 51 b 249 479 401 51 249 228 z "},"R":{"ha":1014,"x_min":0,"x_max":0,"o":"m 494 67 l 356 67 l 356 443 l 429 443 l 797 0 l 1022 0 l 618 460 b 865 704 756 493 865 572 b 467 958 865 882 697 958 l 42 958 l 42 892 l 181 892 l 181 67 l 42 67 l 42 0 l 494 0 z m 356 892 l 444 892 b 683 701 578 892 683 836 b 444 508 683 565 578 508 l 356 508 z "},"S":{"ha":786,"x_min":0,"x_max":0,"o":"m 378 899 b 681 646 503 899 596 783 l 681 974 l 578 903 b 381 972 536 939 461 972 b 85 693 215 972 85 849 b 557 219 85 389 557 463 b 382 58 557 115 478 58 b 63 339 253 58 142 165 l 63 89 b 358 -14 128 29 246 -14 b 717 292 556 -14 717 113 b 231 760 717 596 231 546 b 378 899 231 843 290 899 z "},"T":{"ha":1015,"x_min":0,"x_max":0,"o":"m 213 892 l 419 892 l 419 67 l 260 67 l 260 0 l 754 0 l 754 67 l 596 67 l 596 892 l 801 892 l 969 669 l 969 999 l 894 958 l 119 958 l 44 999 l 44 669 z "},"U":{"ha":1093,"x_min":0,"x_max":0,"o":"m 853 379 b 594 94 853 197 751 94 b 335 381 432 94 335 199 l 335 892 l 474 892 l 474 958 l 21 958 l 21 892 l 160 892 l 160 354 b 551 -14 160 101 371 -14 b 933 358 754 -14 933 126 l 933 892 l 1071 892 l 1071 958 l 704 958 l 704 892 l 853 892 z "},"V":{"ha":1047,"x_min":0,"x_max":0,"o":"m 317 892 l 476 892 l 476 958 l 18 958 l 18 892 l 128 892 l 524 -51 l 919 892 l 1029 892 l 1029 958 l 672 958 l 672 892 l 839 892 l 574 239 z "},"W":{"ha":1481,"x_min":0,"x_max":0,"o":"m 307 892 l 433 892 l 433 958 l 18 958 l 18 892 l 128 892 l 504 -51 l 750 569 l 981 -51 l 1353 892 l 1463 892 l 1463 958 l 1108 958 l 1108 892 l 1274 892 l 1031 258 l 806 892 l 967 892 l 967 958 l 536 958 l 536 892 l 631 892 l 715 661 l 557 256 z "},"X":{"ha":1133,"x_min":0,"x_max":0,"o":"m 61 958 l 61 892 l 189 892 l 472 493 l 161 67 l 22 67 l 22 0 l 393 0 l 393 67 l 253 67 l 517 429 l 775 67 l 636 67 l 636 0 l 1111 0 l 1111 67 l 978 67 l 636 549 l 890 892 l 1028 892 l 1028 958 l 651 958 l 651 892 l 797 892 l 592 611 l 393 892 l 531 892 l 531 958 z "},"Y":{"ha":1054,"x_min":0,"x_max":0,"o":"m 775 0 l 775 67 l 615 67 l 615 463 l 926 892 l 1036 892 l 1036 958 l 675 958 l 675 892 l 839 892 l 582 533 l 335 892 l 497 892 l 497 958 l 18 958 l 18 892 l 128 892 l 440 463 l 440 67 l 281 67 l 281 0 z "},"Z":{"ha":928,"x_min":0,"x_max":0,"o":"m 668 67 l 275 67 l 875 958 l 169 958 l 94 999 l 94 669 l 263 892 l 635 892 l 31 0 l 836 0 l 894 331 z "},"Á":{"ha":1081,"x_min":0,"x_max":0,"o":"m 401 958 l 450 839 l 128 67 l 18 67 l 18 0 l 376 0 l 376 67 l 206 67 l 322 351 l 649 351 l 764 67 l 593 67 l 593 0 l 1064 0 l 1064 67 l 953 67 l 586 958 z m 349 418 l 486 751 l 621 418 z m 793 1153 l 624 1264 l 372 1021 z "},"Ă":{"ha":1081,"x_min":0,"x_max":0,"o":"m 401 958 l 450 839 l 128 67 l 18 67 l 18 0 l 376 0 l 376 67 l 206 67 l 322 351 l 649 351 l 764 67 l 593 67 l 593 0 l 1064 0 l 1064 67 l 953 67 l 586 958 z m 349 418 l 486 751 l 621 418 z m 508 1019 b 738 1286 629 1019 738 1121 b 508 1133 682 1185 606 1133 b 279 1286 411 1133 335 1185 b 508 1019 279 1121 388 1019 z "},"Â":{"ha":1081,"x_min":0,"x_max":0,"o":"m 401 958 l 450 839 l 128 67 l 18 67 l 18 0 l 376 0 l 376 67 l 206 67 l 322 351 l 649 351 l 764 67 l 593 67 l 593 0 l 1064 0 l 1064 67 l 953 67 l 586 958 z m 349 418 l 486 751 l 621 418 z m 439 1264 l 261 1008 l 515 1157 l 769 1008 l 592 1264 z "},"Ä":{"ha":1081,"x_min":0,"x_max":0,"o":"m 401 958 l 450 839 l 128 67 l 18 67 l 18 0 l 376 0 l 376 67 l 206 67 l 322 351 l 649 351 l 764 67 l 593 67 l 593 0 l 1064 0 l 1064 67 l 953 67 l 586 958 z m 349 418 l 486 751 l 621 418 z m 653 1035 b 744 1124 706 1035 744 1074 b 653 1214 744 1175 706 1214 b 563 1124 601 1214 563 1175 b 653 1035 563 1074 601 1035 z m 376 1035 b 468 1124 429 1035 468 1074 b 376 1214 468 1175 429 1214 b 286 1124 325 1214 286 1175 b 376 1035 286 1074 325 1035 z "},"À":{"ha":1081,"x_min":0,"x_max":0,"o":"m 401 958 l 450 839 l 128 67 l 18 67 l 18 0 l 376 0 l 376 67 l 206 67 l 322 351 l 649 351 l 764 67 l 593 67 l 593 0 l 1064 0 l 1064 67 l 953 67 l 586 958 z m 349 418 l 486 751 l 621 418 z m 233 1153 l 654 1021 l 403 1264 z "},"Ā":{"ha":1081,"x_min":0,"x_max":0,"o":"m 401 958 l 450 839 l 128 67 l 18 67 l 18 0 l 376 0 l 376 67 l 206 67 l 322 351 l 649 351 l 764 67 l 593 67 l 593 0 l 1064 0 l 1064 67 l 953 67 l 586 958 z m 349 418 l 486 751 l 621 418 z m 332 1150 l 263 1058 l 704 1058 l 774 1150 z "},"Ą":{"ha":1081,"x_min":0,"x_max":0,"o":"m 401 958 l 450 839 l 128 67 l 18 67 l 18 0 l 376 0 l 376 67 l 206 67 l 322 351 l 649 351 l 764 67 l 593 67 l 593 7 b 394 -262 488 -69 394 -178 b 504 -372 394 -335 444 -372 b 656 -285 563 -372 610 -335 l 596 -285 b 503 -204 533 -285 503 -257 b 625 0 503 -140 556 -61 l 1064 0 l 1064 67 l 953 67 l 586 958 z m 349 418 l 486 751 l 621 418 z "},"Å":{"ha":1081,"x_min":0,"x_max":0,"o":"m 401 958 l 450 839 l 128 67 l 18 67 l 18 0 l 376 0 l 376 67 l 206 67 l 322 351 l 649 351 l 764 67 l 593 67 l 593 0 l 1064 0 l 1064 67 l 953 67 l 586 958 z m 349 418 l 486 751 l 621 418 z m 508 1311 b 354 1156 424 1311 354 1240 b 508 1001 354 1072 424 1001 b 663 1156 593 1001 663 1072 b 508 1311 663 1240 593 1311 z m 508 1249 b 601 1156 563 1249 601 1211 b 508 1064 601 1101 563 1064 b 415 1156 454 1064 415 1101 b 508 1249 415 1211 454 1249 z "},"Ã":{"ha":1081,"x_min":0,"x_max":0,"o":"m 401 958 l 450 839 l 128 67 l 18 67 l 18 0 l 376 0 l 376 67 l 206 67 l 322 351 l 649 351 l 764 67 l 593 67 l 593 0 l 1064 0 l 1064 67 l 953 67 l 586 958 z m 349 418 l 486 751 l 621 418 z m 690 1050 l 804 1286 b 629 1176 733 1224 674 1176 l 379 1238 l 265 1001 b 440 1111 335 1064 396 1111 z "},"Æ":{"ha":1465,"x_min":0,"x_max":0,"o":"m 1069 526 l 894 526 l 894 892 l 1181 892 l 1349 678 l 1349 999 l 1274 958 l 496 958 l 496 892 l 644 892 l 128 67 l 18 67 l 18 0 l 383 0 l 383 67 l 213 67 l 394 361 l 718 361 l 718 67 l 581 67 l 581 0 l 1368 0 l 1426 331 l 1200 67 l 894 67 l 894 460 l 1069 460 l 1189 304 l 1189 681 z m 436 429 l 718 883 l 718 429 z "},"Ǽ":{"ha":1465,"x_min":0,"x_max":0,"o":"m 1069 526 l 894 526 l 894 892 l 1181 892 l 1349 678 l 1349 999 l 1274 958 l 496 958 l 496 892 l 644 892 l 128 67 l 18 67 l 18 0 l 383 0 l 383 67 l 213 67 l 394 361 l 718 361 l 718 67 l 581 67 l 581 0 l 1368 0 l 1426 331 l 1200 67 l 894 67 l 894 460 l 1069 460 l 1189 304 l 1189 681 z m 436 429 l 718 883 l 718 429 z m 1232 1153 l 1063 1264 l 811 1021 z "},"Ć":{"ha":958,"x_min":0,"x_max":0,"o":"m 61 457 b 532 -14 61 165 292 -14 b 919 243 725 -14 867 100 b 615 118 833 160 738 118 b 238 531 421 118 238 264 b 547 900 238 754 386 900 b 893 635 706 900 803 771 l 893 972 l 788 904 b 553 972 731 940 657 972 b 61 457 310 972 61 767 z m 843 1153 l 674 1264 l 422 1021 z "},"Č":{"ha":958,"x_min":0,"x_max":0,"o":"m 61 457 b 532 -14 61 165 292 -14 b 919 243 725 -14 867 100 b 615 118 833 160 738 118 b 238 531 421 118 238 264 b 547 900 238 754 386 900 b 893 635 706 900 803 771 l 893 972 l 788 904 b 553 972 731 940 657 972 b 61 457 310 972 61 767 z m 472 1021 l 625 1021 l 803 1276 l 549 1128 l 294 1276 z "},"Ç":{"ha":958,"x_min":0,"x_max":0,"o":"m 61 457 b 503 -12 61 176 274 1 l 419 -149 b 557 -250 490 -165 557 -197 b 482 -336 557 -292 517 -328 l 418 -246 b 350 -308 382 -246 350 -271 b 436 -371 350 -343 385 -371 b 650 -206 528 -371 650 -292 b 518 -72 650 -135 588 -99 l 524 -14 b 532 -14 526 -14 529 -14 b 919 243 725 -14 867 100 b 615 118 833 160 738 118 b 238 531 421 118 238 264 b 547 900 238 754 386 900 b 893 635 706 900 803 771 l 893 972 l 788 904 b 553 972 731 940 657 972 b 61 457 310 972 61 767 z "},"Ĉ":{"ha":958,"x_min":0,"x_max":0,"o":"m 61 457 b 532 -14 61 165 292 -14 b 919 243 725 -14 867 100 b 615 118 833 160 738 118 b 238 531 421 118 238 264 b 547 900 238 754 386 900 b 893 635 706 900 803 771 l 893 972 l 788 904 b 553 972 731 940 657 972 b 61 457 310 972 61 767 z m 471 1264 l 293 1008 l 547 1157 l 801 1008 l 624 1264 z "},"Ċ":{"ha":958,"x_min":0,"x_max":0,"o":"m 61 457 b 532 -14 61 165 292 -14 b 919 243 725 -14 867 100 b 615 118 833 160 738 118 b 238 531 421 118 238 264 b 547 900 238 754 386 900 b 893 635 706 900 803 771 l 893 972 l 788 904 b 553 972 731 940 657 972 b 61 457 310 972 61 767 z m 544 1026 b 646 1128 600 1026 646 1071 b 544 1228 646 1183 600 1228 b 444 1128 489 1228 444 1183 b 544 1026 444 1071 489 1026 z "},"Ď":{"ha":1104,"x_min":0,"x_max":0,"o":"m 426 958 l 42 958 l 42 892 l 181 892 l 181 67 l 42 67 l 42 0 l 440 0 b 1049 506 781 0 1049 200 b 426 958 1049 792 786 958 z m 410 892 b 857 504 688 892 857 754 b 413 67 857 239 689 67 l 356 67 l 356 892 z m 424 1021 l 576 1021 l 754 1276 l 500 1128 l 246 1276 z "},"Đ":{"ha":1115,"x_min":0,"x_max":0,"o":"m 50 460 l 192 460 l 192 67 l 53 67 l 53 0 l 451 0 b 1060 506 792 0 1060 200 b 438 958 1060 792 797 958 l 53 958 l 53 892 l 192 892 l 192 526 l 78 526 z m 421 892 b 868 504 699 892 868 754 b 424 67 868 239 700 67 l 367 67 l 367 460 l 563 460 l 590 526 l 367 526 l 367 892 z "},"É":{"ha":928,"x_min":0,"x_max":0,"o":"m 532 526 l 356 526 l 356 892 l 643 892 l 811 678 l 811 999 l 736 958 l 42 958 l 42 892 l 181 892 l 181 67 l 42 67 l 42 0 l 831 0 l 889 331 l 661 67 l 356 67 l 356 460 l 532 460 l 651 304 l 651 681 z m 740 1153 l 571 1264 l 319 1021 z "},"Ĕ":{"ha":928,"x_min":0,"x_max":0,"o":"m 532 526 l 356 526 l 356 892 l 643 892 l 811 678 l 811 999 l 736 958 l 42 958 l 42 892 l 181 892 l 181 67 l 42 67 l 42 0 l 831 0 l 889 331 l 661 67 l 356 67 l 356 460 l 532 460 l 651 304 l 651 681 z m 464 1019 b 693 1286 585 1019 693 1121 b 464 1133 638 1185 561 1133 b 235 1286 367 1133 290 1185 b 464 1019 235 1121 343 1019 z "},"Ě":{"ha":928,"x_min":0,"x_max":0,"o":"m 532 526 l 356 526 l 356 892 l 643 892 l 811 678 l 811 999 l 736 958 l 42 958 l 42 892 l 181 892 l 181 67 l 42 67 l 42 0 l 831 0 l 889 331 l 661 67 l 356 67 l 356 460 l 532 460 l 651 304 l 651 681 z m 386 1021 l 539 1021 l 717 1276 l 463 1128 l 208 1276 z "},"Ê":{"ha":928,"x_min":0,"x_max":0,"o":"m 532 526 l 356 526 l 356 892 l 643 892 l 811 678 l 811 999 l 736 958 l 42 958 l 42 892 l 181 892 l 181 67 l 42 67 l 42 0 l 831 0 l 889 331 l 661 67 l 356 67 l 356 460 l 532 460 l 651 304 l 651 681 z m 382 1264 l 204 1008 l 458 1157 l 713 1008 l 535 1264 z "},"Ë":{"ha":928,"x_min":0,"x_max":0,"o":"m 532 526 l 356 526 l 356 892 l 643 892 l 811 678 l 811 999 l 736 958 l 42 958 l 42 892 l 181 892 l 181 67 l 42 67 l 42 0 l 831 0 l 889 331 l 661 67 l 356 67 l 356 460 l 532 460 l 651 304 l 651 681 z m 589 1035 b 681 1124 642 1035 681 1074 b 589 1214 681 1175 642 1214 b 499 1124 538 1214 499 1175 b 589 1035 499 1074 538 1035 z m 313 1035 b 404 1124 365 1035 404 1074 b 313 1214 404 1175 365 1214 b 222 1124 261 1214 222 1175 b 313 1035 222 1074 261 1035 z "},"Ė":{"ha":928,"x_min":0,"x_max":0,"o":"m 532 526 l 356 526 l 356 892 l 643 892 l 811 678 l 811 999 l 736 958 l 42 958 l 42 892 l 181 892 l 181 67 l 42 67 l 42 0 l 831 0 l 889 331 l 661 67 l 356 67 l 356 460 l 532 460 l 651 304 l 651 681 z m 463 1026 b 564 1128 518 1026 564 1071 b 463 1228 564 1183 518 1228 b 363 1128 407 1228 363 1183 b 463 1026 363 1071 407 1026 z "},"È":{"ha":928,"x_min":0,"x_max":0,"o":"m 532 526 l 356 526 l 356 892 l 643 892 l 811 678 l 811 999 l 736 958 l 42 958 l 42 892 l 181 892 l 181 67 l 42 67 l 42 0 l 831 0 l 889 331 l 661 67 l 356 67 l 356 460 l 532 460 l 651 304 l 651 681 z m 231 1153 l 651 1021 l 400 1264 z "},"Ē":{"ha":928,"x_min":0,"x_max":0,"o":"m 532 526 l 356 526 l 356 892 l 643 892 l 811 678 l 811 999 l 736 958 l 42 958 l 42 892 l 181 892 l 181 67 l 42 67 l 42 0 l 831 0 l 889 331 l 661 67 l 356 67 l 356 460 l 532 460 l 651 304 l 651 681 z m 282 1150 l 213 1058 l 654 1058 l 724 1150 z "},"Ę":{"ha":928,"x_min":0,"x_max":0,"o":"m 532 526 l 356 526 l 356 892 l 643 892 l 811 678 l 811 999 l 736 958 l 42 958 l 42 892 l 181 892 l 181 67 l 42 67 l 42 0 l 611 0 b 421 -262 510 -75 421 -181 b 531 -372 421 -335 471 -372 b 682 -285 589 -372 636 -335 l 622 -285 b 529 -204 560 -285 529 -257 b 651 0 529 -140 582 -61 l 831 0 l 889 331 l 661 67 l 356 67 l 356 460 l 532 460 l 651 304 l 651 681 z "},"Ð":{"ha":1115,"x_min":0,"x_max":0,"o":"m 50 460 l 192 460 l 192 67 l 53 67 l 53 0 l 451 0 b 1060 506 792 0 1060 200 b 438 958 1060 792 797 958 l 53 958 l 53 892 l 192 892 l 192 526 l 78 526 z m 421 892 b 868 504 699 892 868 754 b 424 67 868 239 700 67 l 367 67 l 367 460 l 563 460 l 590 526 l 367 526 l 367 892 z "},"Ğ":{"ha":1069,"x_min":0,"x_max":0,"o":"m 739 361 l 739 76 b 636 61 710 65 674 61 b 254 504 440 61 254 232 b 565 900 254 750 390 900 b 921 635 726 900 831 771 l 921 972 l 813 904 b 563 972 753 940 669 972 b 63 465 319 972 63 772 b 586 -14 63 161 314 -14 b 1000 138 754 -14 911 46 l 913 138 l 913 361 l 1029 361 l 1029 429 l 601 429 l 601 361 z m 560 1019 b 789 1286 681 1019 789 1121 b 560 1133 733 1185 657 1133 b 331 1286 463 1133 386 1185 b 560 1019 331 1121 439 1019 z "},"Ĝ":{"ha":1069,"x_min":0,"x_max":0,"o":"m 739 361 l 739 76 b 636 61 710 65 674 61 b 254 504 440 61 254 232 b 565 900 254 750 390 900 b 921 635 726 900 831 771 l 921 972 l 813 904 b 563 972 753 940 669 972 b 63 465 319 972 63 772 b 586 -14 63 161 314 -14 b 1000 138 754 -14 911 46 l 913 138 l 913 361 l 1029 361 l 1029 429 l 601 429 l 601 361 z m 482 1264 l 304 1008 l 558 1157 l 813 1008 l 635 1264 z "},"Ģ":{"ha":1069,"x_min":0,"x_max":0,"o":"m 739 361 l 739 76 b 636 61 710 65 674 61 b 254 504 440 61 254 232 b 565 900 254 750 390 900 b 921 635 726 900 831 771 l 921 972 l 813 904 b 563 972 753 940 669 972 b 63 465 319 972 63 772 b 586 -14 63 161 314 -14 b 1000 138 754 -14 911 46 l 913 138 l 913 361 l 1029 361 l 1029 429 l 601 429 l 601 361 z m 479 -164 b 511 -228 479 -192 492 -215 l 599 -228 b 453 -387 590 -285 539 -346 b 692 -197 586 -387 692 -297 b 579 -78 692 -132 650 -78 b 479 -164 518 -78 479 -119 z "},"Ġ":{"ha":1069,"x_min":0,"x_max":0,"o":"m 739 361 l 739 76 b 636 61 710 65 674 61 b 254 504 440 61 254 232 b 565 900 254 750 390 900 b 921 635 726 900 831 771 l 921 972 l 813 904 b 563 972 753 940 669 972 b 63 465 319 972 63 772 b 586 -14 63 161 314 -14 b 1000 138 754 -14 911 46 l 913 138 l 913 361 l 1029 361 l 1029 429 l 601 429 l 601 361 z m 561 1026 b 663 1128 617 1026 663 1071 b 561 1228 663 1183 617 1228 b 461 1128 506 1228 461 1183 b 561 1026 461 1071 506 1026 z "},"Ħ":{"ha":1225,"x_min":0,"x_max":0,"o":"m 50 621 l 192 621 l 192 67 l 54 67 l 54 0 l 506 0 l 506 67 l 368 67 l 368 399 l 857 399 l 857 67 l 719 67 l 719 0 l 1171 0 l 1171 67 l 1033 67 l 1033 621 l 1147 621 l 1175 689 l 1033 689 l 1033 892 l 1171 892 l 1171 958 l 719 958 l 719 892 l 857 892 l 857 689 l 368 689 l 368 892 l 506 892 l 506 958 l 54 958 l 54 892 l 192 892 l 192 689 l 78 689 z m 368 467 l 368 621 l 857 621 l 857 467 z "},"Ĥ":{"ha":1201,"x_min":0,"x_max":0,"o":"m 42 958 l 42 892 l 181 892 l 181 67 l 42 67 l 42 0 l 494 0 l 494 67 l 356 67 l 356 460 l 846 460 l 846 67 l 707 67 l 707 0 l 1160 0 l 1160 67 l 1021 67 l 1021 892 l 1160 892 l 1160 958 l 707 958 l 707 892 l 846 892 l 846 526 l 356 526 l 356 892 l 494 892 l 494 958 z m 525 1264 l 347 1008 l 601 1157 l 856 1008 l 678 1264 z "},"Í":{"ha":536,"x_min":0,"x_max":0,"o":"m 42 958 l 42 892 l 181 892 l 181 67 l 42 67 l 42 0 l 494 0 l 494 67 l 356 67 l 356 892 l 494 892 l 494 958 z m 524 1153 l 354 1264 l 103 1021 z "},"Ĭ":{"ha":536,"x_min":0,"x_max":0,"o":"m 42 958 l 42 892 l 181 892 l 181 67 l 42 67 l 42 0 l 494 0 l 494 67 l 356 67 l 356 892 l 494 892 l 494 958 z m 268 1019 b 497 1286 389 1019 497 1121 b 268 1133 442 1185 365 1133 b 39 1286 171 1133 94 1185 b 268 1019 39 1121 147 1019 z "},"Î":{"ha":536,"x_min":0,"x_max":0,"o":"m 42 958 l 42 892 l 181 892 l 181 67 l 42 67 l 42 0 l 494 0 l 494 67 l 356 67 l 356 892 l 494 892 l 494 958 z m 192 1264 l 14 1008 l 268 1157 l 522 1008 l 344 1264 z "},"Ï":{"ha":536,"x_min":0,"x_max":0,"o":"m 42 958 l 42 892 l 181 892 l 181 67 l 42 67 l 42 0 l 494 0 l 494 67 l 356 67 l 356 892 l 494 892 l 494 958 z m 406 1035 b 497 1124 458 1035 497 1074 b 406 1214 497 1175 458 1214 b 315 1124 354 1214 315 1175 b 406 1035 315 1074 354 1035 z m 129 1035 b 221 1124 182 1035 221 1074 b 129 1214 221 1175 182 1214 b 39 1124 78 1214 39 1175 b 129 1035 39 1074 78 1035 z "},"İ":{"ha":536,"x_min":0,"x_max":0,"o":"m 42 958 l 42 892 l 181 892 l 181 67 l 42 67 l 42 0 l 494 0 l 494 67 l 356 67 l 356 892 l 494 892 l 494 958 z m 268 1026 b 369 1128 324 1026 369 1071 b 268 1228 369 1183 324 1228 b 168 1128 213 1228 168 1183 b 268 1026 168 1071 213 1026 z "},"Ì":{"ha":536,"x_min":0,"x_max":0,"o":"m 42 958 l 42 892 l 181 892 l 181 67 l 42 67 l 42 0 l 494 0 l 494 67 l 356 67 l 356 892 l 494 892 l 494 958 z m 14 1153 l 435 1021 l 183 1264 z "},"Ī":{"ha":536,"x_min":0,"x_max":0,"o":"m 42 958 l 42 892 l 181 892 l 181 67 l 42 67 l 42 0 l 494 0 l 494 67 l 356 67 l 356 892 l 494 892 l 494 958 z m 82 1150 l 13 1058 l 454 1058 l 524 1150 z "},"Į":{"ha":536,"x_min":0,"x_max":0,"o":"m 42 958 l 42 892 l 181 892 l 181 67 l 42 67 l 42 0 l 285 0 b 94 -262 183 -75 94 -181 b 204 -372 94 -335 144 -372 b 356 -285 263 -372 310 -335 l 296 -285 b 203 -204 233 -285 203 -257 b 325 0 203 -140 256 -61 l 494 0 l 494 67 l 356 67 l 356 892 l 494 892 l 494 958 z "},"Ĩ":{"ha":536,"x_min":0,"x_max":0,"o":"m 42 958 l 42 892 l 181 892 l 181 67 l 42 67 l 42 0 l 494 0 l 494 67 l 356 67 l 356 892 l 494 892 l 494 958 z m 442 1050 l 556 1286 b 381 1176 485 1224 425 1176 l 131 1238 l 17 1001 b 192 1111 86 1064 147 1111 z "},"Ĵ":{"ha":529,"x_min":0,"x_max":0,"o":"m 176 57 b 88 -240 176 -94 133 -192 l -71 -144 b -136 -243 -110 -164 -136 -201 b -32 -340 -136 -299 -94 -340 b 353 32 110 -340 297 -131 l 353 892 l 490 892 l 490 958 l 39 958 l 39 892 l 176 892 z m 183 1264 l 6 1008 l 260 1157 l 514 1008 l 336 1264 z "},"Ķ":{"ha":1042,"x_min":0,"x_max":0,"o":"m 42 958 l 42 892 l 181 892 l 181 67 l 42 67 l 42 0 l 494 0 l 494 67 l 356 67 l 356 517 l 808 0 l 1038 0 l 533 561 l 888 892 l 1015 892 l 1015 958 l 644 958 l 644 892 l 792 892 l 414 536 l 356 536 l 356 892 l 494 892 l 494 958 z m 432 -164 b 464 -228 432 -192 444 -215 l 551 -228 b 406 -387 543 -285 492 -346 b 644 -197 539 -387 644 -297 b 532 -78 644 -132 603 -78 b 432 -164 471 -78 432 -119 z "},"Ĺ":{"ha":893,"x_min":0,"x_max":0,"o":"m 181 892 l 181 67 l 42 67 l 42 0 l 811 0 l 869 331 l 643 67 l 356 67 l 356 892 l 494 892 l 494 958 l 42 958 l 42 892 z m 604 1153 l 435 1264 l 183 1021 z "},"Ľ":{"ha":893,"x_min":0,"x_max":0,"o":"m 181 892 l 181 67 l 42 67 l 42 0 l 811 0 l 869 331 l 643 67 l 356 67 l 356 892 l 494 892 l 494 958 l 42 958 l 42 892 z m 769 958 l 604 958 l 553 593 z "},"Ļ":{"ha":893,"x_min":0,"x_max":0,"o":"m 181 892 l 181 67 l 42 67 l 42 0 l 811 0 l 869 331 l 643 67 l 356 67 l 356 892 l 494 892 l 494 958 l 42 958 l 42 892 z m 358 -164 b 390 -228 358 -192 371 -215 l 478 -228 b 332 -387 469 -285 418 -346 b 571 -197 465 -387 571 -297 b 458 -78 571 -132 529 -78 b 358 -164 397 -78 358 -119 z "},"Ŀ":{"ha":893,"x_min":0,"x_max":0,"o":"m 181 892 l 181 67 l 42 67 l 42 0 l 811 0 l 869 331 l 643 67 l 356 67 l 356 892 l 494 892 l 494 958 l 42 958 l 42 892 z m 671 439 b 771 539 726 439 771 485 b 671 639 771 594 726 639 b 571 539 615 639 571 594 b 671 439 571 485 615 439 z "},"Ł":{"ha":904,"x_min":0,"x_max":0,"o":"m 65 286 l 192 360 l 192 67 l 53 67 l 53 0 l 822 0 l 881 331 l 654 67 l 367 67 l 367 453 l 579 579 l 579 650 l 367 525 l 367 892 l 506 892 l 506 958 l 53 958 l 53 892 l 192 892 l 192 432 l 65 358 z "},"Ń":{"ha":1088,"x_min":0,"x_max":0,"o":"m 394 0 l 394 67 l 246 67 l 246 707 l 922 -44 l 922 892 l 1060 892 l 1060 958 l 694 958 l 694 892 l 842 892 l 842 288 l 250 958 l 19 958 l 167 794 l 167 67 l 28 67 l 28 0 z m 808 1153 l 639 1264 l 388 1021 z "},"Ň":{"ha":1088,"x_min":0,"x_max":0,"o":"m 394 0 l 394 67 l 246 67 l 246 707 l 922 -44 l 922 892 l 1060 892 l 1060 958 l 694 958 l 694 892 l 842 892 l 842 288 l 250 958 l 19 958 l 167 794 l 167 67 l 28 67 l 28 0 z m 464 1021 l 617 1021 l 794 1276 l 540 1128 l 286 1276 z "},"Ņ":{"ha":1088,"x_min":0,"x_max":0,"o":"m 394 0 l 394 67 l 246 67 l 246 707 l 922 -44 l 922 892 l 1060 892 l 1060 958 l 694 958 l 694 892 l 842 892 l 842 288 l 250 958 l 19 958 l 167 794 l 167 67 l 28 67 l 28 0 z m 451 -164 b 483 -228 451 -192 464 -215 l 571 -228 b 425 -387 563 -285 511 -346 b 664 -197 558 -387 664 -297 b 551 -78 664 -132 622 -78 b 451 -164 490 -78 451 -119 z "},"Ñ":{"ha":1088,"x_min":0,"x_max":0,"o":"m 394 0 l 394 67 l 246 67 l 246 707 l 922 -44 l 922 892 l 1060 892 l 1060 958 l 694 958 l 694 892 l 842 892 l 842 288 l 250 958 l 19 958 l 167 794 l 167 67 l 28 67 l 28 0 z m 724 1050 l 838 1286 b 663 1176 767 1224 707 1176 l 413 1238 l 299 1001 b 474 1111 368 1064 429 1111 z "},"Ŋ":{"ha":1088,"x_min":0,"x_max":0,"o":"m 394 0 l 394 67 l 246 67 l 246 707 l 842 43 l 842 -28 b 754 -310 842 -158 794 -267 l 615 -226 b 556 -315 579 -246 556 -278 b 649 -403 556 -364 592 -403 b 922 -108 767 -403 874 -246 l 922 892 l 1060 892 l 1060 958 l 694 958 l 694 892 l 842 892 l 842 288 l 250 958 l 19 958 l 167 794 l 167 67 l 28 67 l 28 0 z "},"Ó":{"ha":1113,"x_min":0,"x_max":0,"o":"m 1057 479 b 557 972 1057 764 815 972 b 56 479 297 972 56 764 b 557 -14 56 194 297 -14 b 1057 479 815 -14 1057 194 z m 249 479 b 557 906 249 731 401 906 b 865 479 713 906 865 731 b 557 51 865 228 713 51 b 249 479 401 51 249 228 z m 804 1153 l 635 1264 l 383 1021 z "},"Ŏ":{"ha":1113,"x_min":0,"x_max":0,"o":"m 1057 479 b 557 972 1057 764 815 972 b 56 479 297 972 56 764 b 557 -14 56 194 297 -14 b 1057 479 815 -14 1057 194 z m 249 479 b 557 906 249 731 401 906 b 865 479 713 906 865 731 b 557 51 865 228 713 51 b 249 479 401 51 249 228 z m 557 1019 b 786 1286 678 1019 786 1121 b 557 1133 731 1185 654 1133 b 328 1286 460 1133 383 1185 b 557 1019 328 1121 436 1019 z "},"Ô":{"ha":1113,"x_min":0,"x_max":0,"o":"m 1057 479 b 557 972 1057 764 815 972 b 56 479 297 972 56 764 b 557 -14 56 194 297 -14 b 1057 479 815 -14 1057 194 z m 249 479 b 557 906 249 731 401 906 b 865 479 713 906 865 731 b 557 51 865 228 713 51 b 249 479 401 51 249 228 z m 481 1264 l 303 1008 l 557 1157 l 811 1008 l 633 1264 z "},"Ö":{"ha":1113,"x_min":0,"x_max":0,"o":"m 1057 479 b 557 972 1057 764 815 972 b 56 479 297 972 56 764 b 557 -14 56 194 297 -14 b 1057 479 815 -14 1057 194 z m 249 479 b 557 906 249 731 401 906 b 865 479 713 906 865 731 b 557 51 865 228 713 51 b 249 479 401 51 249 228 z m 694 1035 b 786 1124 747 1035 786 1074 b 694 1214 786 1175 747 1214 b 604 1124 643 1214 604 1175 b 694 1035 604 1074 643 1035 z m 418 1035 b 510 1124 471 1035 510 1074 b 418 1214 510 1175 471 1214 b 328 1124 367 1214 328 1175 b 418 1035 328 1074 367 1035 z "},"Ò":{"ha":1113,"x_min":0,"x_max":0,"o":"m 1057 479 b 557 972 1057 764 815 972 b 56 479 297 972 56 764 b 557 -14 56 194 297 -14 b 1057 479 815 -14 1057 194 z m 249 479 b 557 906 249 731 401 906 b 865 479 713 906 865 731 b 557 51 865 228 713 51 b 249 479 401 51 249 228 z m 308 1153 l 729 1021 l 478 1264 z "},"Ő":{"ha":1113,"x_min":0,"x_max":0,"o":"m 1057 479 b 557 972 1057 764 815 972 b 56 479 297 972 56 764 b 557 -14 56 194 297 -14 b 1057 479 815 -14 1057 194 z m 249 479 b 557 906 249 731 401 906 b 865 479 713 906 865 731 b 557 51 865 228 713 51 b 249 479 401 51 249 228 z m 796 1264 l 633 1021 l 978 1210 z m 506 1264 l 344 1021 l 689 1210 z "},"Ō":{"ha":1113,"x_min":0,"x_max":0,"o":"m 1057 479 b 557 972 1057 764 815 972 b 56 479 297 972 56 764 b 557 -14 56 194 297 -14 b 1057 479 815 -14 1057 194 z m 249 479 b 557 906 249 731 401 906 b 865 479 713 906 865 731 b 557 51 865 228 713 51 b 249 479 401 51 249 228 z m 371 1150 l 301 1058 l 743 1058 l 813 1150 z "},"Ø":{"ha":1113,"x_min":0,"x_max":0,"o":"m 1057 479 b 881 854 1057 633 986 765 l 982 994 l 900 994 l 826 893 b 557 972 747 943 653 972 b 56 479 297 972 56 764 b 247 93 56 318 133 181 l 133 -65 l 214 -65 l 301 56 b 557 -14 378 11 467 -14 b 1057 479 815 -14 1057 194 z m 249 479 b 557 906 249 731 401 906 b 760 800 631 906 703 867 l 325 199 b 249 479 278 272 249 368 z m 865 479 b 557 51 865 228 713 51 b 367 144 489 51 421 86 l 799 742 b 865 479 840 672 865 582 z "},"Ǿ":{"ha":1113,"x_min":0,"x_max":0,"o":"m 1057 479 b 881 854 1057 633 986 765 l 982 994 l 900 994 l 826 893 b 557 972 747 943 653 972 b 56 479 297 972 56 764 b 247 93 56 318 133 181 l 133 -65 l 214 -65 l 301 56 b 557 -14 378 11 467 -14 b 1057 479 815 -14 1057 194 z m 249 479 b 557 906 249 731 401 906 b 760 800 631 906 703 867 l 325 199 b 249 479 278 272 249 368 z m 865 479 b 557 51 865 228 713 51 b 367 144 489 51 421 86 l 799 742 b 865 479 840 672 865 582 z m 804 1153 l 635 1264 l 383 1021 z "},"Õ":{"ha":1113,"x_min":0,"x_max":0,"o":"m 1057 479 b 557 972 1057 764 815 972 b 56 479 297 972 56 764 b 557 -14 56 194 297 -14 b 1057 479 815 -14 1057 194 z m 249 479 b 557 906 249 731 401 906 b 865 479 713 906 865 731 b 557 51 865 228 713 51 b 249 479 401 51 249 228 z m 719 1050 l 833 1286 b 658 1176 763 1224 703 1176 l 408 1238 l 294 1001 b 469 1111 364 1064 425 1111 z "},"Œ":{"ha":1508,"x_min":0,"x_max":0,"o":"m 678 0 l 1399 0 l 1457 331 l 1229 67 l 925 67 l 925 460 l 1100 460 l 1219 304 l 1219 681 l 1100 526 l 925 526 l 925 892 l 1211 892 l 1379 678 l 1379 999 l 1304 958 l 664 958 b 56 453 324 958 56 758 b 678 0 56 167 318 0 z m 694 67 b 247 454 417 67 247 204 b 692 892 247 719 415 892 l 749 892 l 749 67 z "},"Ŕ":{"ha":1014,"x_min":0,"x_max":0,"o":"m 494 67 l 356 67 l 356 443 l 429 443 l 797 0 l 1022 0 l 618 460 b 865 704 756 493 865 572 b 467 958 865 882 697 958 l 42 958 l 42 892 l 181 892 l 181 67 l 42 67 l 42 0 l 494 0 z m 356 892 l 444 892 b 683 701 578 892 683 836 b 444 508 683 565 578 508 l 356 508 z m 767 1153 l 597 1264 l 346 1021 z "},"Ř":{"ha":1014,"x_min":0,"x_max":0,"o":"m 494 67 l 356 67 l 356 443 l 429 443 l 797 0 l 1022 0 l 618 460 b 865 704 756 493 865 572 b 467 958 865 882 697 958 l 42 958 l 42 892 l 181 892 l 181 67 l 42 67 l 42 0 l 494 0 z m 356 892 l 444 892 b 683 701 578 892 683 836 b 444 508 683 565 578 508 l 356 508 z m 386 1021 l 539 1021 l 717 1276 l 463 1128 l 208 1276 z "},"Ŗ":{"ha":1014,"x_min":0,"x_max":0,"o":"m 494 67 l 356 67 l 356 443 l 429 443 l 797 0 l 1022 0 l 618 460 b 865 704 756 493 865 572 b 467 958 865 882 697 958 l 42 958 l 42 892 l 181 892 l 181 67 l 42 67 l 42 0 l 494 0 z m 356 892 l 444 892 b 683 701 578 892 683 836 b 444 508 683 565 578 508 l 356 508 z m 417 -164 b 449 -228 417 -192 429 -215 l 536 -228 b 390 -387 528 -285 476 -346 b 629 -197 524 -387 629 -297 b 517 -78 629 -132 588 -78 b 417 -164 456 -78 417 -119 z "},"Ś":{"ha":786,"x_min":0,"x_max":0,"o":"m 378 899 b 681 646 503 899 596 783 l 681 974 l 578 903 b 381 972 536 939 461 972 b 85 693 215 972 85 849 b 557 219 85 389 557 463 b 382 58 557 115 478 58 b 63 339 253 58 142 165 l 63 89 b 358 -14 128 29 246 -14 b 717 292 556 -14 717 113 b 231 760 717 596 231 546 b 378 899 231 843 290 899 z m 679 1153 l 510 1264 l 258 1021 z "},"Š":{"ha":786,"x_min":0,"x_max":0,"o":"m 378 899 b 681 646 503 899 596 783 l 681 974 l 578 903 b 381 972 536 939 461 972 b 85 693 215 972 85 849 b 557 219 85 389 557 463 b 382 58 557 115 478 58 b 63 339 253 58 142 165 l 63 89 b 358 -14 128 29 246 -14 b 717 292 556 -14 717 113 b 231 760 717 596 231 546 b 378 899 231 843 290 899 z m 307 1021 l 460 1021 l 638 1276 l 383 1128 l 129 1276 z "},"Ş":{"ha":786,"x_min":0,"x_max":0,"o":"m 278 -371 b 492 -206 369 -371 492 -292 b 360 -72 492 -135 429 -99 l 365 -14 b 717 292 556 -14 717 113 b 231 760 717 596 231 546 b 378 899 231 843 290 899 b 681 646 503 899 596 783 l 681 974 l 578 903 b 381 972 536 939 461 972 b 85 693 215 972 85 849 b 557 219 85 389 557 463 b 382 58 557 115 478 58 b 63 339 253 58 142 165 l 63 89 b 344 -14 125 32 236 -10 l 261 -149 b 399 -250 332 -165 399 -197 b 324 -336 399 -292 358 -328 l 260 -246 b 192 -308 224 -246 192 -271 b 278 -371 192 -343 226 -371 z "},"Ŝ":{"ha":786,"x_min":0,"x_max":0,"o":"m 378 899 b 681 646 503 899 596 783 l 681 974 l 578 903 b 381 972 536 939 461 972 b 85 693 215 972 85 849 b 557 219 85 389 557 463 b 382 58 557 115 478 58 b 63 339 253 58 142 165 l 63 89 b 358 -14 128 29 246 -14 b 717 292 556 -14 717 113 b 231 760 717 596 231 546 b 378 899 231 843 290 899 z m 311 1264 l 133 1008 l 388 1157 l 642 1008 l 464 1264 z "},"Ș":{"ha":786,"x_min":0,"x_max":0,"o":"m 378 899 b 681 646 503 899 596 783 l 681 974 l 578 903 b 381 972 536 939 461 972 b 85 693 215 972 85 849 b 557 219 85 389 557 463 b 382 58 557 115 478 58 b 63 339 253 58 142 165 l 63 89 b 358 -14 128 29 246 -14 b 717 292 556 -14 717 113 b 231 760 717 596 231 546 b 378 899 231 843 290 899 z m 269 -164 b 301 -228 269 -192 282 -215 l 389 -228 b 243 -387 381 -285 329 -346 b 482 -197 376 -387 482 -297 b 369 -78 482 -132 440 -78 b 269 -164 308 -78 269 -119 z "},"ẞ":{"ha":1090,"x_min":0,"x_max":0,"o":"m 728 56 b 456 331 617 56 525 156 l 456 79 b 719 -14 519 24 613 -14 b 1046 303 904 -14 1046 138 b 746 614 1046 478 896 575 l 1010 947 l 874 910 b 575 972 797 942 693 972 b 153 585 324 972 153 818 l 153 67 l 19 67 l 19 0 l 328 0 l 328 596 b 556 911 328 754 388 911 b 785 763 654 911 747 844 l 583 501 b 900 235 771 463 900 375 b 728 56 900 125 822 56 z "},"Ŧ":{"ha":1015,"x_min":0,"x_max":0,"o":"m 233 460 l 419 460 l 419 67 l 260 67 l 260 0 l 754 0 l 754 67 l 596 67 l 596 460 l 754 460 l 782 526 l 596 526 l 596 892 l 801 892 l 969 669 l 969 999 l 894 958 l 119 958 l 44 999 l 44 669 l 213 892 l 419 892 l 419 526 l 261 526 z "},"Ť":{"ha":1015,"x_min":0,"x_max":0,"o":"m 213 892 l 419 892 l 419 67 l 260 67 l 260 0 l 754 0 l 754 67 l 596 67 l 596 892 l 801 892 l 969 669 l 969 999 l 894 958 l 119 958 l 44 999 l 44 669 z m 431 1021 l 253 1276 l 507 1128 l 761 1276 l 583 1021 z "},"Ţ":{"ha":1015,"x_min":0,"x_max":0,"o":"m 422 -371 b 636 -206 514 -371 636 -292 b 504 -72 636 -135 574 -99 l 510 0 l 754 0 l 754 67 l 596 67 l 596 892 l 801 892 l 969 669 l 969 999 l 894 958 l 119 958 l 44 999 l 44 669 l 213 892 l 419 892 l 419 67 l 260 67 l 260 0 l 497 0 l 406 -149 b 543 -250 476 -165 543 -197 b 468 -336 543 -292 503 -328 l 404 -246 b 336 -308 368 -246 336 -271 b 422 -371 336 -343 371 -371 z "},"Ț":{"ha":1015,"x_min":0,"x_max":0,"o":"m 213 892 l 417 892 l 417 67 l 258 67 l 258 0 l 757 0 l 757 67 l 597 67 l 597 892 l 801 892 l 969 669 l 969 999 l 894 958 l 119 958 l 44 999 l 44 669 z m 410 -164 b 442 -228 410 -192 422 -215 l 529 -228 b 383 -387 521 -285 469 -346 b 622 -197 517 -387 622 -297 b 510 -78 622 -132 581 -78 b 410 -164 449 -78 410 -119 z "},"Þ":{"ha":894,"x_min":0,"x_max":0,"o":"m 42 67 l 42 0 l 535 0 l 535 67 l 356 67 l 356 694 l 429 694 b 681 488 574 694 681 631 b 422 274 681 360 596 278 l 535 219 b 860 485 685 221 860 311 b 453 761 860 674 689 761 l 356 761 l 356 892 l 494 892 l 494 958 l 42 958 l 42 892 l 181 892 l 181 67 z "},"Ú":{"ha":1093,"x_min":0,"x_max":0,"o":"m 853 379 b 594 94 853 197 751 94 b 335 381 432 94 335 199 l 335 892 l 474 892 l 474 958 l 21 958 l 21 892 l 160 892 l 160 354 b 551 -14 160 101 371 -14 b 933 358 754 -14 933 126 l 933 892 l 1071 892 l 1071 958 l 704 958 l 704 892 l 853 892 z m 843 1153 l 674 1264 l 422 1021 z "},"Ŭ":{"ha":1093,"x_min":0,"x_max":0,"o":"m 853 379 b 594 94 853 197 751 94 b 335 381 432 94 335 199 l 335 892 l 474 892 l 474 958 l 21 958 l 21 892 l 160 892 l 160 354 b 551 -14 160 101 371 -14 b 933 358 754 -14 933 126 l 933 892 l 1071 892 l 1071 958 l 704 958 l 704 892 l 853 892 z m 583 1019 b 813 1286 704 1019 813 1121 b 583 1133 757 1185 681 1133 b 354 1286 486 1133 410 1185 b 583 1019 354 1121 463 1019 z "},"Û":{"ha":1093,"x_min":0,"x_max":0,"o":"m 853 379 b 594 94 853 197 751 94 b 335 381 432 94 335 199 l 335 892 l 474 892 l 474 958 l 21 958 l 21 892 l 160 892 l 160 354 b 551 -14 160 101 371 -14 b 933 358 754 -14 933 126 l 933 892 l 1071 892 l 1071 958 l 704 958 l 704 892 l 853 892 z m 503 1264 l 325 1008 l 579 1157 l 833 1008 l 656 1264 z "},"Ü":{"ha":1093,"x_min":0,"x_max":0,"o":"m 853 379 b 594 94 853 197 751 94 b 335 381 432 94 335 199 l 335 892 l 474 892 l 474 958 l 21 958 l 21 892 l 160 892 l 160 354 b 551 -14 160 101 371 -14 b 933 358 754 -14 933 126 l 933 892 l 1071 892 l 1071 958 l 704 958 l 704 892 l 853 892 z m 724 1035 b 815 1124 776 1035 815 1074 b 724 1214 815 1175 776 1214 b 633 1124 672 1214 633 1175 b 724 1035 633 1074 672 1035 z m 447 1035 b 539 1124 500 1035 539 1074 b 447 1214 539 1175 500 1214 b 357 1124 396 1214 357 1175 b 447 1035 357 1074 396 1035 z "},"Ù":{"ha":1093,"x_min":0,"x_max":0,"o":"m 853 379 b 594 94 853 197 751 94 b 335 381 432 94 335 199 l 335 892 l 474 892 l 474 958 l 21 958 l 21 892 l 160 892 l 160 354 b 551 -14 160 101 371 -14 b 933 358 754 -14 933 126 l 933 892 l 1071 892 l 1071 958 l 704 958 l 704 892 l 853 892 z m 307 1153 l 728 1021 l 476 1264 z "},"Ű":{"ha":1093,"x_min":0,"x_max":0,"o":"m 853 379 b 594 94 853 197 751 94 b 335 381 432 94 335 199 l 335 892 l 474 892 l 474 958 l 21 958 l 21 892 l 160 892 l 160 354 b 551 -14 160 101 371 -14 b 933 358 754 -14 933 126 l 933 892 l 1071 892 l 1071 958 l 704 958 l 704 892 l 853 892 z m 808 1264 l 646 1021 l 990 1210 z m 518 1264 l 357 1021 l 701 1210 z "},"Ū":{"ha":1093,"x_min":0,"x_max":0,"o":"m 853 379 b 594 94 853 197 751 94 b 335 381 432 94 335 199 l 335 892 l 474 892 l 474 958 l 21 958 l 21 892 l 160 892 l 160 354 b 551 -14 160 101 371 -14 b 933 358 754 -14 933 126 l 933 892 l 1071 892 l 1071 958 l 704 958 l 704 892 l 853 892 z m 414 1150 l 344 1058 l 786 1058 l 856 1150 z "},"Ų":{"ha":1093,"x_min":0,"x_max":0,"o":"m 853 379 b 594 94 853 197 751 94 b 335 381 432 94 335 199 l 335 892 l 474 892 l 474 958 l 21 958 l 21 892 l 160 892 l 160 354 b 551 -14 160 101 371 -14 b 649 -3 585 -14 618 -10 b 465 -262 550 -78 465 -182 b 575 -372 465 -335 515 -372 b 726 -285 633 -372 679 -335 l 667 -285 b 574 -203 604 -285 574 -256 b 721 18 574 -128 636 -32 b 933 358 836 85 933 193 l 933 892 l 1071 892 l 1071 958 l 704 958 l 704 892 l 853 892 z "},"Ů":{"ha":1093,"x_min":0,"x_max":0,"o":"m 853 379 b 594 94 853 197 751 94 b 335 381 432 94 335 199 l 335 892 l 474 892 l 474 958 l 21 958 l 21 892 l 160 892 l 160 354 b 551 -14 160 101 371 -14 b 933 358 754 -14 933 126 l 933 892 l 1071 892 l 1071 958 l 704 958 l 704 892 l 853 892 z m 579 1311 b 425 1156 494 1311 425 1240 b 579 1001 425 1072 494 1001 b 733 1156 664 1001 733 1072 b 579 1311 733 1240 664 1311 z m 579 1249 b 672 1156 633 1249 672 1211 b 579 1064 672 1101 633 1064 b 486 1156 525 1064 486 1101 b 579 1249 486 1211 525 1249 z "},"Ũ":{"ha":1093,"x_min":0,"x_max":0,"o":"m 853 379 b 594 94 853 197 751 94 b 335 381 432 94 335 199 l 335 892 l 474 892 l 474 958 l 21 958 l 21 892 l 160 892 l 160 354 b 551 -14 160 101 371 -14 b 933 358 754 -14 933 126 l 933 892 l 1071 892 l 1071 958 l 704 958 l 704 892 l 853 892 z m 756 1050 l 869 1286 b 694 1176 799 1224 739 1176 l 444 1238 l 331 1001 b 506 1111 400 1064 461 1111 z "},"Ẃ":{"ha":1481,"x_min":0,"x_max":0,"o":"m 307 892 l 433 892 l 433 958 l 18 958 l 18 892 l 128 892 l 504 -51 l 750 569 l 981 -51 l 1353 892 l 1463 892 l 1463 958 l 1108 958 l 1108 892 l 1274 892 l 1031 258 l 806 892 l 967 892 l 967 958 l 536 958 l 536 892 l 631 892 l 715 661 l 557 256 z m 993 1153 l 824 1264 l 572 1021 z "},"Ŵ":{"ha":1481,"x_min":0,"x_max":0,"o":"m 307 892 l 433 892 l 433 958 l 18 958 l 18 892 l 128 892 l 504 -51 l 750 569 l 981 -51 l 1353 892 l 1463 892 l 1463 958 l 1108 958 l 1108 892 l 1274 892 l 1031 258 l 806 892 l 967 892 l 967 958 l 536 958 l 536 892 l 631 892 l 715 661 l 557 256 z m 665 1264 l 488 1008 l 742 1157 l 996 1008 l 818 1264 z "},"Ẁ":{"ha":1481,"x_min":0,"x_max":0,"o":"m 307 892 l 433 892 l 433 958 l 18 958 l 18 892 l 128 892 l 504 -51 l 750 569 l 981 -51 l 1353 892 l 1463 892 l 1463 958 l 1108 958 l 1108 892 l 1274 892 l 1031 258 l 806 892 l 967 892 l 967 958 l 536 958 l 536 892 l 631 892 l 715 661 l 557 256 z m 497 1153 l 918 1021 l 667 1264 z "},"Ẅ":{"ha":1481,"x_min":0,"x_max":0,"o":"m 307 892 l 433 892 l 433 958 l 18 958 l 18 892 l 128 892 l 504 -51 l 750 569 l 981 -51 l 1353 892 l 1463 892 l 1463 958 l 1108 958 l 1108 892 l 1274 892 l 1031 258 l 806 892 l 967 892 l 967 958 l 536 958 l 536 892 l 631 892 l 715 661 l 557 256 z m 882 1035 b 974 1124 935 1035 974 1074 b 882 1214 974 1175 935 1214 b 792 1124 831 1214 792 1175 b 882 1035 792 1074 831 1035 z m 606 1035 b 697 1124 658 1035 697 1074 b 606 1214 697 1175 658 1214 b 515 1124 554 1214 515 1175 b 606 1035 515 1074 554 1035 z "},"Ý":{"ha":1054,"x_min":0,"x_max":0,"o":"m 775 0 l 775 67 l 615 67 l 615 463 l 926 892 l 1036 892 l 1036 958 l 675 958 l 675 892 l 839 892 l 582 533 l 335 892 l 497 892 l 497 958 l 18 958 l 18 892 l 128 892 l 440 463 l 440 67 l 281 67 l 281 0 z m 831 1153 l 410 1021 l 661 1264 z "},"Ŷ":{"ha":1054,"x_min":0,"x_max":0,"o":"m 775 0 l 775 67 l 615 67 l 615 463 l 926 892 l 1036 892 l 1036 958 l 675 958 l 675 892 l 839 892 l 582 533 l 335 892 l 497 892 l 497 958 l 18 958 l 18 892 l 128 892 l 440 463 l 440 67 l 281 67 l 281 0 z m 481 1264 l 303 1008 l 557 1157 l 811 1008 l 633 1264 z "},"Ÿ":{"ha":1054,"x_min":0,"x_max":0,"o":"m 775 0 l 775 67 l 615 67 l 615 463 l 926 892 l 1036 892 l 1036 958 l 675 958 l 675 892 l 839 892 l 582 533 l 335 892 l 497 892 l 497 958 l 18 958 l 18 892 l 128 892 l 440 463 l 440 67 l 281 67 l 281 0 z m 701 1035 b 793 1124 754 1035 793 1074 b 701 1214 793 1175 754 1214 b 611 1124 650 1214 611 1175 b 701 1035 611 1074 650 1035 z m 425 1035 b 517 1124 478 1035 517 1074 b 425 1214 517 1175 478 1214 b 335 1124 374 1214 335 1175 b 425 1035 335 1074 374 1035 z "},"Ỳ":{"ha":1054,"x_min":0,"x_max":0,"o":"m 775 0 l 775 67 l 615 67 l 615 463 l 926 892 l 1036 892 l 1036 958 l 675 958 l 675 892 l 839 892 l 582 533 l 335 892 l 497 892 l 497 958 l 18 958 l 18 892 l 128 892 l 440 463 l 440 67 l 281 67 l 281 0 z m 276 1153 l 697 1021 l 446 1264 z "},"Ź":{"ha":928,"x_min":0,"x_max":0,"o":"m 668 67 l 275 67 l 875 958 l 169 958 l 94 999 l 94 669 l 263 892 l 635 892 l 31 0 l 836 0 l 894 331 z m 739 1153 l 569 1264 l 318 1021 z "},"Ž":{"ha":928,"x_min":0,"x_max":0,"o":"m 668 67 l 275 67 l 875 958 l 169 958 l 94 999 l 94 669 l 263 892 l 635 892 l 31 0 l 836 0 l 894 331 z m 408 1021 l 561 1021 l 739 1276 l 485 1128 l 231 1276 z "},"Ż":{"ha":928,"x_min":0,"x_max":0,"o":"m 668 67 l 275 67 l 875 958 l 169 958 l 94 999 l 94 669 l 263 892 l 635 892 l 31 0 l 836 0 l 894 331 z m 481 1026 b 582 1128 536 1026 582 1071 b 481 1228 582 1183 536 1228 b 381 1128 425 1228 381 1183 b 481 1026 381 1071 425 1026 z "},"a":{"ha":657,"x_min":0,"x_max":0,"o":"m 375 433 l 375 364 l 222 303 b 43 122 126 265 43 215 b 182 -10 43 42 110 -10 b 356 83 263 -10 321 43 l 376 83 b 510 -11 396 31 440 -11 b 660 132 590 -11 660 47 b 594 100 642 110 618 100 b 533 172 558 100 533 124 l 533 468 b 374 644 533 579 465 644 b 36 411 238 644 83 540 l 208 411 l 208 554 b 375 433 338 581 375 515 z m 375 314 l 375 129 b 282 92 349 106 318 92 b 199 167 236 92 199 118 b 314 288 199 228 240 256 z "},"b":{"ha":782,"x_min":0,"x_max":0,"o":"m 93 907 l 93 57 b 358 -14 153 17 261 -14 b 742 346 560 -14 742 132 b 475 644 742 513 638 644 b 279 556 393 644 326 601 l 257 556 l 257 1083 l -35 989 z m 257 506 b 351 544 272 525 310 544 b 574 289 481 544 574 451 b 385 46 574 128 488 46 b 257 121 325 46 278 76 z "},"c":{"ha":625,"x_min":0,"x_max":0,"o":"m 471 429 b 574 524 525 429 574 471 b 392 644 574 592 503 644 b 40 296 203 644 40 488 b 335 -14 40 115 172 -14 b 588 213 472 -14 571 81 b 403 119 547 156 479 119 b 188 353 279 119 188 210 b 383 590 188 486 276 585 z "},"d":{"ha":800,"x_min":0,"x_max":0,"o":"m 689 131 l 689 1083 l 397 989 l 525 907 l 525 618 b 394 644 485 636 436 644 b 40 289 214 644 40 500 b 308 -14 40 119 150 -14 b 500 72 389 -14 453 26 l 525 72 l 525 -22 l 797 56 z m 525 126 b 432 88 510 106 472 88 b 210 342 304 88 210 179 b 397 585 210 501 294 585 b 525 508 458 585 508 550 z "},"e":{"ha":646,"x_min":0,"x_max":0,"o":"m 604 215 b 404 122 554 150 483 122 b 174 368 276 122 174 221 l 174 378 l 608 378 b 353 644 608 521 513 644 b 40 307 182 644 40 483 b 343 -14 40 122 172 -14 b 604 215 472 -14 582 68 z m 328 578 b 450 433 401 578 450 519 l 179 433 b 328 578 199 526 258 578 z "},"f":{"ha":463,"x_min":0,"x_max":0,"o":"m 121 63 l 35 63 l 35 0 l 411 0 l 411 63 l 285 63 l 285 536 l 438 536 l 483 611 l 285 611 b 447 1018 285 818 339 972 l 574 897 b 664 992 628 904 664 939 b 538 1083 664 1043 617 1083 b 121 639 340 1083 151 896 l 8 568 l 121 490 z "},"g":{"ha":732,"x_min":0,"x_max":0,"o":"m 204 82 l 204 219 b 329 194 243 203 285 194 b 607 419 475 194 607 290 b 576 522 607 457 596 492 l 719 522 l 719 667 l 533 572 b 329 644 481 617 407 644 b 51 419 185 644 51 549 b 185 228 51 336 107 267 b 72 71 119 186 72 135 b 172 -51 72 6 122 -35 l 172 -72 b -10 -237 89 -99 -10 -151 b 283 -403 -10 -346 129 -403 b 724 -87 501 -403 724 -274 b 494 82 724 26 629 82 z m 218 419 b 329 594 218 518 265 594 b 440 419 393 594 440 518 b 329 244 440 321 393 244 b 218 419 265 244 218 321 z m 432 -69 b 588 -168 524 -69 588 -94 b 343 -337 588 -269 471 -337 b 138 -201 211 -337 138 -281 b 228 -69 138 -133 181 -92 z "},"h":{"ha":796,"x_min":0,"x_max":0,"o":"m 113 907 l 113 63 l 25 63 l 25 0 l 363 0 l 363 63 l 276 63 l 276 486 b 390 535 306 510 346 535 b 521 396 475 535 521 485 l 521 63 l 435 63 l 435 0 l 771 0 l 771 63 l 685 63 l 685 440 b 508 644 685 560 624 644 b 301 538 417 644 351 589 l 276 538 l 276 1083 l -17 989 z "},"i":{"ha":396,"x_min":0,"x_max":0,"o":"m 194 786 b 294 886 250 786 294 832 b 194 986 294 942 250 986 b 93 886 138 986 93 942 b 194 786 93 832 138 786 z m 121 63 l 35 63 l 35 0 l 369 0 l 369 63 l 285 63 l 285 658 l 13 557 l 121 472 z "},"j":{"ha":371,"x_min":0,"x_max":0,"o":"m 189 786 b 289 886 244 786 289 832 b 189 986 289 942 244 986 b 88 886 133 986 88 942 b 189 786 88 832 133 786 z m -78 -403 b 279 -72 54 -403 229 -210 l 279 658 l 7 557 l 115 472 l 115 -54 b 32 -310 115 -185 72 -267 l -112 -226 b -172 -315 -147 -246 -172 -278 b -78 -403 -172 -364 -135 -403 z "},"k":{"ha":788,"x_min":0,"x_max":0,"o":"m 113 63 l 25 63 l 25 0 l 363 0 l 363 63 l 276 63 l 276 350 l 576 0 l 789 0 l 438 385 l 671 568 l 754 568 l 754 631 l 435 631 l 435 568 l 553 568 l 553 554 l 324 369 l 276 369 l 276 1083 l -17 989 l 113 907 z "},"l":{"ha":389,"x_min":0,"x_max":0,"o":"m 113 63 l 25 63 l 25 0 l 363 0 l 363 63 l 276 63 l 276 1083 l -17 989 l 113 907 z "},"m":{"ha":1207,"x_min":0,"x_max":0,"o":"m 121 472 l 121 63 l 35 63 l 35 0 l 368 0 l 368 63 l 285 63 l 285 486 b 397 535 314 510 354 535 b 526 396 481 535 526 485 l 526 63 l 442 63 l 442 0 l 774 0 l 774 63 l 690 63 l 690 486 b 803 535 719 510 760 535 b 932 396 888 535 932 485 l 932 63 l 847 63 l 847 0 l 1182 0 l 1182 63 l 1096 63 l 1096 440 b 924 644 1096 560 1036 644 b 704 533 828 644 756 583 l 683 533 b 518 644 657 596 603 644 b 310 538 422 644 360 588 l 285 538 l 285 658 l 13 557 z "},"n":{"ha":804,"x_min":0,"x_max":0,"o":"m 121 472 l 121 63 l 35 63 l 35 0 l 369 0 l 369 63 l 285 63 l 285 486 b 399 535 314 510 354 535 b 529 396 483 535 529 485 l 529 63 l 443 63 l 443 0 l 779 0 l 779 63 l 693 63 l 693 440 b 517 644 693 560 632 644 b 310 538 425 644 360 589 l 285 538 l 285 658 l 13 557 z "},"o":{"ha":757,"x_min":0,"x_max":0,"o":"m 40 315 b 378 -14 40 124 201 -14 b 715 315 556 -14 715 124 b 378 644 715 507 556 644 b 40 315 201 644 40 507 z m 219 315 b 378 589 219 472 293 589 b 538 315 464 589 538 474 b 378 40 538 157 464 40 b 219 315 293 40 219 157 z "},"p":{"ha":799,"x_min":0,"x_max":0,"o":"m 108 472 l 108 -326 l 24 -326 l 24 -389 l 410 -389 l 410 -326 l 272 -326 l 272 13 b 411 -14 314 -6 361 -14 b 757 346 586 -14 757 132 b 490 644 757 513 653 644 b 294 556 410 644 342 601 l 272 556 l 272 658 l 1 557 z m 272 121 l 272 506 b 367 544 288 525 325 544 b 589 289 497 544 589 451 b 400 46 589 128 504 46 b 272 121 340 46 293 76 z "},"q":{"ha":779,"x_min":0,"x_max":0,"o":"m 525 -326 l 389 -326 l 389 -389 l 775 -389 l 775 -326 l 689 -326 l 689 661 l 568 604 b 397 644 526 625 464 644 b 40 289 214 644 40 503 b 308 -14 40 119 150 -14 b 500 72 389 -14 453 26 l 525 72 z m 525 126 b 432 88 510 106 472 88 b 210 342 304 88 210 179 b 397 585 210 501 294 585 b 525 508 458 585 508 550 z "},"r":{"ha":593,"x_min":0,"x_max":0,"o":"m 121 472 l 121 63 l 35 63 l 35 0 l 411 0 l 411 63 l 285 63 l 285 456 l 383 526 l 493 440 b 583 553 539 458 583 499 b 488 644 583 607 542 644 b 308 519 419 644 367 585 l 285 519 l 285 658 l 13 557 z "},"s":{"ha":571,"x_min":0,"x_max":0,"o":"m 50 57 b 263 -14 92 18 175 -14 b 517 196 401 -14 517 74 b 201 501 517 411 201 371 b 283 578 201 549 236 578 b 489 406 357 578 424 504 l 489 644 l 414 594 b 276 644 383 621 332 644 b 63 446 164 644 63 563 b 371 140 63 233 371 282 b 274 53 371 83 326 53 b 50 239 196 53 114 117 z "},"t":{"ha":519,"x_min":0,"x_max":0,"o":"m 3 575 l 111 513 l 104 169 b 289 -14 104 50 189 -14 b 511 161 396 -14 479 47 b 378 101 471 119 428 101 b 264 224 317 101 264 138 l 264 536 l 454 536 l 499 611 l 264 611 l 264 778 z "},"u":{"ha":790,"x_min":0,"x_max":0,"o":"m 510 -22 l 782 56 l 674 131 l 674 638 l 414 618 l 414 556 l 510 556 l 510 124 b 411 85 493 104 454 85 b 275 233 328 85 275 139 l 275 638 l 18 618 l 18 556 l 111 556 l 111 190 b 297 -14 111 71 181 -14 b 485 72 375 -14 433 26 l 510 72 z "},"v":{"ha":718,"x_min":0,"x_max":0,"o":"m 572 568 l 408 199 l 249 568 l 357 568 l 357 631 l 8 631 l 8 568 l 71 568 l 361 -42 l 647 568 l 710 568 l 710 631 l 457 631 l 457 568 z "},"w":{"ha":1024,"x_min":0,"x_max":0,"o":"m 879 568 l 733 210 l 599 568 l 697 568 l 697 631 l 386 631 l 386 568 l 443 568 l 492 446 l 385 207 l 243 568 l 319 568 l 319 631 l 8 631 l 8 568 l 71 568 l 336 -42 l 521 372 l 686 -42 l 953 568 l 1015 568 l 1015 631 l 765 631 l 765 568 z "},"x":{"ha":756,"x_min":0,"x_max":0,"o":"m 92 63 l 8 63 l 8 0 l 290 0 l 290 63 l 171 63 l 336 265 l 494 63 l 396 63 l 396 0 l 749 0 l 749 63 l 678 63 l 458 349 l 642 568 l 715 568 l 715 631 l 464 631 l 464 568 l 564 568 l 424 394 l 290 568 l 383 568 l 383 631 l 31 631 l 31 568 l 101 568 l 299 314 z "},"y":{"ha":718,"x_min":0,"x_max":0,"o":"m 572 568 l 401 150 l 250 568 l 357 568 l 357 631 l 8 631 l 8 568 l 71 568 l 313 -32 l 201 -282 l 56 -226 b 21 -306 32 -250 21 -278 b 124 -403 21 -356 58 -403 b 281 -268 206 -403 249 -339 l 647 568 l 710 568 l 710 631 l 457 631 l 457 568 z "},"z":{"ha":664,"x_min":0,"x_max":0,"o":"m 242 60 l 626 631 l 154 631 l 103 686 l 42 399 l 225 569 l 410 569 l 17 0 l 603 0 l 640 274 l 474 60 z "},"á":{"ha":657,"x_min":0,"x_max":0,"o":"m 375 433 l 375 364 l 222 303 b 43 122 126 265 43 215 b 182 -10 43 42 110 -10 b 356 83 263 -10 321 43 l 376 83 b 510 -11 396 31 440 -11 b 660 132 590 -11 660 47 b 594 100 642 110 618 100 b 533 172 558 100 533 124 l 533 468 b 374 644 533 579 465 644 b 36 411 238 644 83 540 l 208 411 l 208 554 b 375 433 338 581 375 515 z m 375 314 l 375 129 b 282 92 349 106 318 92 b 199 167 236 92 199 118 b 314 288 199 228 240 256 z m 535 1033 l 350 1033 l 274 683 z "},"ă":{"ha":657,"x_min":0,"x_max":0,"o":"m 375 433 l 375 364 l 222 303 b 43 122 126 265 43 215 b 182 -10 43 42 110 -10 b 356 83 263 -10 321 43 l 376 83 b 510 -11 396 31 440 -11 b 660 132 590 -11 660 47 b 594 100 642 110 618 100 b 533 172 558 100 533 124 l 533 468 b 374 644 533 579 465 644 b 36 411 238 644 83 540 l 208 411 l 208 554 b 375 433 338 581 375 515 z m 375 314 l 375 129 b 282 92 349 106 318 92 b 199 167 236 92 199 118 b 314 288 199 228 240 256 z m 319 828 b 146 1067 243 828 189 910 b 319 711 118 883 194 711 b 493 1067 444 711 521 883 b 319 828 450 910 396 828 z "},"â":{"ha":657,"x_min":0,"x_max":0,"o":"m 375 433 l 375 364 l 222 303 b 43 122 126 265 43 215 b 182 -10 43 42 110 -10 b 356 83 263 -10 321 43 l 376 83 b 510 -11 396 31 440 -11 b 660 132 590 -11 660 47 b 594 100 642 110 618 100 b 533 172 558 100 533 124 l 533 468 b 374 644 533 579 465 644 b 36 411 238 644 83 540 l 208 411 l 208 554 b 375 433 338 581 375 515 z m 375 314 l 375 129 b 282 92 349 106 318 92 b 199 167 236 92 199 118 b 314 288 199 228 240 256 z m 317 913 l 518 678 l 379 1028 l 254 1028 l 115 678 z "},"ä":{"ha":657,"x_min":0,"x_max":0,"o":"m 375 433 l 375 364 l 222 303 b 43 122 126 265 43 215 b 182 -10 43 42 110 -10 b 356 83 263 -10 321 43 l 376 83 b 510 -11 396 31 440 -11 b 660 132 590 -11 660 47 b 594 100 642 110 618 100 b 533 172 558 100 533 124 l 533 468 b 374 644 533 579 465 644 b 36 411 238 644 83 540 l 208 411 l 208 554 b 375 433 338 581 375 515 z m 375 314 l 375 129 b 282 92 349 106 318 92 b 199 167 236 92 199 118 b 314 288 199 228 240 256 z m 449 782 b 540 871 500 782 540 821 b 449 961 540 922 500 961 b 357 871 396 961 357 922 b 449 782 357 821 396 782 z m 183 782 b 276 871 236 782 276 821 b 183 961 276 922 236 961 b 93 871 132 961 93 922 b 183 782 93 821 132 782 z "},"à":{"ha":657,"x_min":0,"x_max":0,"o":"m 375 433 l 375 364 l 222 303 b 43 122 126 265 43 215 b 182 -10 43 42 110 -10 b 356 83 263 -10 321 43 l 376 83 b 510 -11 396 31 440 -11 b 660 132 590 -11 660 47 b 594 100 642 110 618 100 b 533 172 558 100 533 124 l 533 468 b 374 644 533 579 465 644 b 36 411 238 644 83 540 l 208 411 l 208 554 b 375 433 338 581 375 515 z m 375 314 l 375 129 b 282 92 349 106 318 92 b 199 167 236 92 199 118 b 314 288 199 228 240 256 z m 140 1033 l 401 683 l 325 1033 z "},"ā":{"ha":657,"x_min":0,"x_max":0,"o":"m 375 433 l 375 364 l 222 303 b 43 122 126 265 43 215 b 182 -10 43 42 110 -10 b 356 83 263 -10 321 43 l 376 83 b 510 -11 396 31 440 -11 b 660 132 590 -11 660 47 b 594 100 642 110 618 100 b 533 172 558 100 533 124 l 533 468 b 374 644 533 579 465 644 b 36 411 238 644 83 540 l 208 411 l 208 554 b 375 433 338 581 375 515 z m 375 314 l 375 129 b 282 92 349 106 318 92 b 199 167 236 92 199 118 b 314 288 199 228 240 256 z m 175 889 l 110 800 l 475 800 l 540 889 z "},"ą":{"ha":657,"x_min":0,"x_max":0,"o":"m 375 433 l 375 364 l 222 303 b 43 122 126 265 43 215 b 182 -10 43 42 110 -10 b 356 83 263 -10 321 43 l 376 83 b 524 -11 399 25 444 -11 b 347 -262 428 -85 347 -185 b 457 -372 347 -335 397 -372 b 608 -285 515 -372 563 -335 l 549 -285 b 456 -200 486 -285 456 -257 b 563 -15 456 -131 506 -64 b 660 132 613 26 660 67 b 594 100 642 110 618 100 b 533 172 558 100 533 124 l 533 468 b 374 644 533 579 465 644 b 36 411 238 644 83 540 l 208 411 l 208 554 b 375 433 338 581 375 515 z m 375 314 l 375 129 b 282 92 349 106 318 92 b 199 167 236 92 199 118 b 314 288 199 228 240 256 z "},"å":{"ha":657,"x_min":0,"x_max":0,"o":"m 375 433 l 375 364 l 222 303 b 43 122 126 265 43 215 b 182 -10 43 42 110 -10 b 356 83 263 -10 321 43 l 376 83 b 510 -11 396 31 440 -11 b 660 132 590 -11 660 47 b 594 100 642 110 618 100 b 533 172 558 100 533 124 l 533 468 b 374 644 533 579 465 644 b 36 411 238 644 83 540 l 208 411 l 208 554 b 375 433 338 581 375 515 z m 375 314 l 375 129 b 282 92 349 106 318 92 b 199 167 236 92 199 118 b 314 288 199 228 240 256 z m 318 1017 b 174 874 239 1017 174 953 b 318 731 174 796 239 731 b 463 874 397 731 463 796 b 318 1017 463 953 397 1017 z m 318 958 b 404 874 367 958 404 921 b 318 789 404 826 367 789 b 232 874 269 789 232 826 b 318 958 232 921 269 958 z "},"ã":{"ha":657,"x_min":0,"x_max":0,"o":"m 375 433 l 375 364 l 222 303 b 43 122 126 265 43 215 b 182 -10 43 42 110 -10 b 356 83 263 -10 321 43 l 376 83 b 510 -11 396 31 440 -11 b 660 132 590 -11 660 47 b 594 100 642 110 618 100 b 533 172 558 100 533 124 l 533 468 b 374 644 533 579 465 644 b 36 411 238 644 83 540 l 208 411 l 208 554 b 375 433 338 581 375 515 z m 375 314 l 375 129 b 282 92 349 106 318 92 b 199 167 236 92 199 118 b 314 288 199 228 240 256 z m 467 786 l 576 1026 b 401 906 506 958 446 906 l 179 963 l 71 722 b 244 843 140 790 200 843 z "},"æ":{"ha":965,"x_min":0,"x_max":0,"o":"m 928 215 b 728 122 878 150 807 122 b 500 325 613 122 518 201 l 932 410 b 676 644 924 540 836 644 b 494 578 608 644 546 619 b 368 644 469 619 425 644 b 36 411 238 644 83 540 l 208 411 l 208 554 b 388 431 333 582 383 510 b 367 347 376 404 369 376 l 289 332 b 43 135 126 299 43 240 b 199 -10 43 51 110 -10 b 406 106 286 -10 368 44 l 428 106 b 667 -14 482 32 568 -14 b 928 215 796 -14 904 68 z m 775 429 l 497 374 b 650 578 497 501 567 578 b 775 429 725 578 775 513 z m 197 176 b 326 290 197 238 239 272 l 364 297 b 404 142 365 239 381 186 b 289 90 375 107 329 90 b 197 176 236 90 197 125 z "},"ǽ":{"ha":965,"x_min":0,"x_max":0,"o":"m 928 215 b 728 122 878 150 807 122 b 500 325 613 122 518 201 l 932 410 b 676 644 924 540 836 644 b 494 578 608 644 546 619 b 368 644 469 619 425 644 b 36 411 238 644 83 540 l 208 411 l 208 554 b 388 431 333 582 383 510 b 367 347 376 404 369 376 l 289 332 b 43 135 126 299 43 240 b 199 -10 43 51 110 -10 b 406 106 286 -10 368 44 l 428 106 b 667 -14 482 32 568 -14 b 928 215 796 -14 904 68 z m 775 429 l 497 374 b 650 578 497 501 567 578 b 775 429 725 578 775 513 z m 197 176 b 326 290 197 238 239 272 l 364 297 b 404 142 365 239 381 186 b 289 90 375 107 329 90 b 197 176 236 90 197 125 z m 738 1033 l 553 1033 l 476 683 z "},"ć":{"ha":625,"x_min":0,"x_max":0,"o":"m 471 429 b 574 524 525 429 574 471 b 392 644 574 592 503 644 b 40 296 203 644 40 488 b 335 -14 40 115 172 -14 b 588 213 472 -14 571 81 b 403 119 547 156 479 119 b 188 353 279 119 188 210 b 383 590 188 486 276 585 z m 554 1033 l 369 1033 l 293 683 z "},"č":{"ha":625,"x_min":0,"x_max":0,"o":"m 471 429 b 574 524 525 429 574 471 b 392 644 574 592 503 644 b 40 296 203 644 40 488 b 335 -14 40 115 172 -14 b 588 213 472 -14 571 81 b 403 119 547 156 479 119 b 188 353 279 119 188 210 b 383 590 188 486 276 585 z m 360 839 l 158 1074 l 297 724 l 422 724 l 561 1074 z "},"ç":{"ha":625,"x_min":0,"x_max":0,"o":"m 233 -371 b 447 -206 325 -371 447 -292 b 315 -72 447 -135 385 -99 l 321 -14 b 335 -14 325 -14 331 -14 b 588 213 472 -14 571 81 b 403 119 547 156 479 119 b 188 353 279 119 188 210 b 383 590 188 486 276 585 l 471 429 b 574 524 525 429 574 471 b 392 644 574 592 503 644 b 40 296 203 644 40 488 b 301 -12 40 128 154 4 l 217 -149 b 354 -250 288 -165 354 -197 b 279 -336 354 -292 314 -328 l 215 -246 b 147 -308 179 -246 147 -271 b 233 -371 147 -343 182 -371 z "},"ĉ":{"ha":625,"x_min":0,"x_max":0,"o":"m 471 429 b 574 524 525 429 574 471 b 392 644 574 592 503 644 b 40 296 203 644 40 488 b 335 -14 40 115 172 -14 b 588 213 472 -14 571 81 b 403 119 547 156 479 119 b 188 353 279 119 188 210 b 383 590 188 486 276 585 z m 344 913 l 546 678 l 407 1028 l 282 1028 l 143 678 z "},"ċ":{"ha":625,"x_min":0,"x_max":0,"o":"m 471 429 b 574 524 525 429 574 471 b 392 644 574 592 503 644 b 40 296 203 644 40 488 b 335 -14 40 115 172 -14 b 588 213 472 -14 571 81 b 403 119 547 156 479 119 b 188 353 279 119 188 210 b 383 590 188 486 276 585 z m 350 786 b 450 886 406 786 450 832 b 350 986 450 942 406 986 b 250 886 294 986 250 942 b 350 786 250 832 294 786 z "},"ď":{"ha":992,"x_min":0,"x_max":0,"o":"m 689 131 l 689 1083 l 397 989 l 525 907 l 525 618 b 394 644 485 636 436 644 b 40 289 214 644 40 500 b 308 -14 40 119 150 -14 b 500 72 389 -14 453 26 l 525 72 l 525 -22 l 797 56 z m 525 126 b 432 88 510 106 472 88 b 210 342 304 88 210 179 b 397 585 210 501 294 585 b 525 508 458 585 508 550 z m 986 1069 l 821 1069 l 769 704 z "},"đ":{"ha":806,"x_min":0,"x_max":0,"o":"m 689 131 l 689 760 l 765 760 l 790 818 l 689 818 l 689 1083 l 397 989 l 525 907 l 525 818 l 340 818 l 315 760 l 525 760 l 525 618 b 394 644 485 636 436 644 b 40 289 214 644 40 500 b 308 -14 40 119 150 -14 b 500 72 389 -14 453 26 l 525 72 l 525 -22 l 797 56 z m 525 126 b 432 88 510 106 472 88 b 210 342 304 88 210 179 b 397 585 210 501 294 585 b 525 508 458 585 508 550 z "},"é":{"ha":646,"x_min":0,"x_max":0,"o":"m 604 215 b 404 122 554 150 483 122 b 174 368 276 122 174 221 l 174 378 l 608 378 b 353 644 608 521 513 644 b 40 307 182 644 40 483 b 343 -14 40 122 172 -14 b 604 215 472 -14 582 68 z m 328 578 b 450 433 401 578 450 519 l 179 433 b 328 578 199 526 258 578 z m 564 1033 l 379 1033 l 303 683 z "},"ĕ":{"ha":646,"x_min":0,"x_max":0,"o":"m 604 215 b 404 122 554 150 483 122 b 174 368 276 122 174 221 l 174 378 l 608 378 b 353 644 608 521 513 644 b 40 307 182 644 40 483 b 343 -14 40 122 172 -14 b 604 215 472 -14 582 68 z m 328 578 b 450 433 401 578 450 519 l 179 433 b 328 578 199 526 258 578 z m 344 828 b 171 1067 268 828 214 910 b 344 711 143 883 219 711 b 518 1067 469 711 546 883 b 344 828 475 910 421 828 z "},"ě":{"ha":646,"x_min":0,"x_max":0,"o":"m 604 215 b 404 122 554 150 483 122 b 174 368 276 122 174 221 l 174 378 l 608 378 b 353 644 608 521 513 644 b 40 307 182 644 40 483 b 343 -14 40 122 172 -14 b 604 215 472 -14 582 68 z m 328 578 b 450 433 401 578 450 519 l 179 433 b 328 578 199 526 258 578 z m 346 839 l 144 1074 l 283 724 l 408 724 l 547 1074 z "},"ê":{"ha":646,"x_min":0,"x_max":0,"o":"m 604 215 b 404 122 554 150 483 122 b 174 368 276 122 174 221 l 174 378 l 608 378 b 353 644 608 521 513 644 b 40 307 182 644 40 483 b 343 -14 40 122 172 -14 b 604 215 472 -14 582 68 z m 328 578 b 450 433 401 578 450 519 l 179 433 b 328 578 199 526 258 578 z m 344 913 l 546 678 l 407 1028 l 282 1028 l 143 678 z "},"ë":{"ha":646,"x_min":0,"x_max":0,"o":"m 604 215 b 404 122 554 150 483 122 b 174 368 276 122 174 221 l 174 378 l 608 378 b 353 644 608 521 513 644 b 40 307 182 644 40 483 b 343 -14 40 122 172 -14 b 604 215 472 -14 582 68 z m 328 578 b 450 433 401 578 450 519 l 179 433 b 328 578 199 526 258 578 z m 476 782 b 568 871 528 782 568 821 b 476 961 568 922 528 961 b 385 871 424 961 385 922 b 476 782 385 821 424 782 z m 211 782 b 304 871 264 782 304 821 b 211 961 304 922 264 961 b 121 871 160 961 121 922 b 211 782 121 821 160 782 z "},"ė":{"ha":646,"x_min":0,"x_max":0,"o":"m 604 215 b 404 122 554 150 483 122 b 174 368 276 122 174 221 l 174 378 l 608 378 b 353 644 608 521 513 644 b 40 307 182 644 40 483 b 343 -14 40 122 172 -14 b 604 215 472 -14 582 68 z m 328 578 b 450 433 401 578 450 519 l 179 433 b 328 578 199 526 258 578 z m 347 786 b 447 886 403 786 447 832 b 347 986 447 942 403 986 b 247 886 292 986 247 942 b 347 786 247 832 292 786 z "},"è":{"ha":646,"x_min":0,"x_max":0,"o":"m 604 215 b 404 122 554 150 483 122 b 174 368 276 122 174 221 l 174 378 l 608 378 b 353 644 608 521 513 644 b 40 307 182 644 40 483 b 343 -14 40 122 172 -14 b 604 215 472 -14 582 68 z m 328 578 b 450 433 401 578 450 519 l 179 433 b 328 578 199 526 258 578 z m 142 1033 l 403 683 l 326 1033 z "},"ē":{"ha":646,"x_min":0,"x_max":0,"o":"m 604 215 b 404 122 554 150 483 122 b 174 368 276 122 174 221 l 174 378 l 608 378 b 353 644 608 521 513 644 b 40 307 182 644 40 483 b 343 -14 40 122 172 -14 b 604 215 472 -14 582 68 z m 328 578 b 450 433 401 578 450 519 l 179 433 b 328 578 199 526 258 578 z m 215 889 l 150 800 l 515 800 l 581 889 z "},"ę":{"ha":646,"x_min":0,"x_max":0,"o":"m 469 13 b 604 215 535 60 590 125 b 404 122 554 150 483 122 b 174 368 276 122 174 221 b 174 378 174 372 174 375 l 608 378 b 353 644 608 521 513 644 b 40 307 182 644 40 483 b 343 -14 40 122 172 -14 b 403 -8 364 -14 383 -12 b 224 -262 311 -76 224 -179 b 333 -372 224 -335 272 -372 b 483 -285 392 -372 438 -335 l 424 -285 b 331 -201 363 -285 331 -256 b 469 13 331 -121 401 -40 z m 328 578 b 450 433 401 578 450 519 l 179 433 b 328 578 199 526 258 578 z "},"ð":{"ha":757,"x_min":0,"x_max":0,"o":"m 161 739 l 394 828 b 535 582 464 746 515 658 l 503 582 b 361 642 472 615 422 642 b 40 315 196 642 40 507 b 378 -14 40 124 201 -14 b 713 407 563 -14 713 153 b 517 874 713 582 635 750 l 617 911 l 617 974 l 471 918 b 82 1083 360 1017 222 1079 b 354 874 174 1038 272 961 l 161 801 z m 219 315 b 378 589 219 472 293 589 b 538 315 464 589 538 474 b 378 40 538 157 464 40 b 219 315 293 40 219 157 z "},"ğ":{"ha":732,"x_min":0,"x_max":0,"o":"m 204 82 l 204 219 b 329 194 243 203 285 194 b 607 419 475 194 607 290 b 576 522 607 457 596 492 l 719 522 l 719 667 l 533 572 b 329 644 481 617 407 644 b 51 419 185 644 51 549 b 185 228 51 336 107 267 b 72 71 119 186 72 135 b 172 -51 72 6 122 -35 l 172 -72 b -10 -237 89 -99 -10 -151 b 283 -403 -10 -346 129 -403 b 724 -87 501 -403 724 -274 b 494 82 724 26 629 82 z m 218 419 b 329 594 218 518 265 594 b 440 419 393 594 440 518 b 329 244 440 321 393 244 b 218 419 265 244 218 321 z m 432 -69 b 588 -168 524 -69 588 -94 b 343 -337 588 -269 471 -337 b 138 -201 211 -337 138 -281 b 228 -69 138 -133 181 -92 z m 350 828 b 176 1067 274 828 219 910 b 350 711 149 883 225 711 b 524 1067 475 711 551 883 b 350 828 481 910 426 828 z "},"ĝ":{"ha":732,"x_min":0,"x_max":0,"o":"m 204 82 l 204 219 b 329 194 243 203 285 194 b 607 419 475 194 607 290 b 576 522 607 457 596 492 l 719 522 l 719 667 l 533 572 b 329 644 481 617 407 644 b 51 419 185 644 51 549 b 185 228 51 336 107 267 b 72 71 119 186 72 135 b 172 -51 72 6 122 -35 l 172 -72 b -10 -237 89 -99 -10 -151 b 283 -403 -10 -346 129 -403 b 724 -87 501 -403 724 -274 b 494 82 724 26 629 82 z m 218 419 b 329 594 218 518 265 594 b 440 419 393 594 440 518 b 329 244 440 321 393 244 b 218 419 265 244 218 321 z m 432 -69 b 588 -168 524 -69 588 -94 b 343 -337 588 -269 471 -337 b 138 -201 211 -337 138 -281 b 228 -69 138 -133 181 -92 z m 344 913 l 546 678 l 407 1028 l 282 1028 l 143 678 z "},"ģ":{"ha":732,"x_min":0,"x_max":0,"o":"m 204 82 l 204 219 b 329 194 243 203 285 194 b 607 419 475 194 607 290 b 576 522 607 457 596 492 l 719 522 l 719 667 l 533 572 b 329 644 481 617 407 644 b 51 419 185 644 51 549 b 185 228 51 336 107 267 b 72 71 119 186 72 135 b 172 -51 72 6 122 -35 l 172 -72 b -10 -237 89 -99 -10 -151 b 283 -403 -10 -346 129 -403 b 724 -87 501 -403 724 -274 b 494 82 724 26 629 82 z m 218 419 b 329 594 218 518 265 594 b 440 419 393 594 440 518 b 329 244 440 321 393 244 b 218 419 265 244 218 321 z m 432 -69 b 588 -168 524 -69 588 -94 b 343 -337 588 -269 471 -337 b 138 -201 211 -337 138 -281 b 228 -69 138 -133 181 -92 z m 443 825 b 411 889 443 853 431 876 l 324 889 b 469 1049 332 946 383 1007 b 231 858 336 1049 231 958 b 343 739 231 793 272 739 b 443 825 404 739 443 781 z "},"ġ":{"ha":732,"x_min":0,"x_max":0,"o":"m 204 82 l 204 219 b 329 194 243 203 285 194 b 607 419 475 194 607 290 b 576 522 607 457 596 492 l 719 522 l 719 667 l 533 572 b 329 644 481 617 407 644 b 51 419 185 644 51 549 b 185 228 51 336 107 267 b 72 71 119 186 72 135 b 172 -51 72 6 122 -35 l 172 -72 b -10 -237 89 -99 -10 -151 b 283 -403 -10 -346 129 -403 b 724 -87 501 -403 724 -274 b 494 82 724 26 629 82 z m 218 419 b 329 594 218 518 265 594 b 440 419 393 594 440 518 b 329 244 440 321 393 244 b 218 419 265 244 218 321 z m 432 -69 b 588 -168 524 -69 588 -94 b 343 -337 588 -269 471 -337 b 138 -201 211 -337 138 -281 b 228 -69 138 -133 181 -92 z m 344 786 b 444 886 400 786 444 832 b 344 986 444 942 400 986 b 244 886 289 986 244 942 b 344 786 244 832 289 786 z "},"ß":{"ha":871,"x_min":0,"x_max":0,"o":"m 583 29 l 499 188 b 401 94 447 188 401 150 b 561 -14 401 31 464 -14 b 833 226 697 -14 833 100 b 543 625 833 421 543 478 b 794 910 543 729 642 825 b 531 1083 764 1017 658 1083 b 121 639 324 1083 151 896 l 8 568 l 121 490 l 121 63 l 35 63 l 35 0 l 285 0 l 285 624 b 492 1028 285 840 346 1028 b 640 874 581 1028 640 942 b 433 538 529 774 433 665 b 703 165 433 357 703 290 b 583 29 703 92 644 38 z "},"ħ":{"ha":796,"x_min":0,"x_max":0,"o":"m 439 760 l 464 818 l 276 818 l 276 1083 l -17 989 l 113 907 l 113 818 l 13 818 l -11 760 l 113 760 l 113 63 l 25 63 l 25 0 l 363 0 l 363 63 l 276 63 l 276 486 b 390 535 306 510 346 535 b 521 396 475 535 521 485 l 521 63 l 435 63 l 435 0 l 771 0 l 771 63 l 685 63 l 685 440 b 508 644 685 560 624 644 b 301 538 417 644 351 589 l 276 538 l 276 760 z "},"ĥ":{"ha":796,"x_min":0,"x_max":0,"o":"m 113 907 l 113 63 l 25 63 l 25 0 l 363 0 l 363 63 l 276 63 l 276 486 b 390 535 306 510 346 535 b 521 396 475 535 521 485 l 521 63 l 435 63 l 435 0 l 771 0 l 771 63 l 685 63 l 685 440 b 508 644 685 560 624 644 b 301 538 417 644 351 589 l 276 538 l 276 1083 l -17 989 z m 306 1351 l 128 1096 l 382 1244 l 636 1096 l 458 1351 z "},"ı":{"ha":396,"x_min":0,"x_max":0,"o":"m 121 63 l 35 63 l 35 0 l 369 0 l 369 63 l 285 63 l 285 658 l 13 557 l 121 472 z "},"í":{"ha":396,"x_min":0,"x_max":0,"o":"m 121 63 l 35 63 l 35 0 l 369 0 l 369 63 l 285 63 l 285 658 l 13 557 l 121 472 z m 406 1033 l 221 1033 l 144 683 z "},"ĭ":{"ha":396,"x_min":0,"x_max":0,"o":"m 121 63 l 35 63 l 35 0 l 369 0 l 369 63 l 285 63 l 285 658 l 13 557 l 121 472 z m 196 828 b 22 1067 119 828 65 910 b 196 711 -6 883 71 711 b 369 1067 321 711 397 883 b 196 828 326 910 272 828 z "},"î":{"ha":396,"x_min":0,"x_max":0,"o":"m 121 63 l 35 63 l 35 0 l 369 0 l 369 63 l 285 63 l 285 658 l 13 557 l 121 472 z m 196 913 l 397 678 l 258 1028 l 133 1028 l -6 678 z "},"ï":{"ha":396,"x_min":0,"x_max":0,"o":"m 121 63 l 35 63 l 35 0 l 369 0 l 369 63 l 285 63 l 285 658 l 13 557 l 121 472 z m 326 782 b 418 871 378 782 418 821 b 326 961 418 922 378 961 b 235 871 274 961 235 922 b 326 782 235 821 274 782 z m 61 782 b 154 871 114 782 154 821 b 61 961 154 922 114 961 b -29 871 10 961 -29 922 b 61 782 -29 821 10 782 z "},"ì":{"ha":396,"x_min":0,"x_max":0,"o":"m 121 63 l 35 63 l 35 0 l 369 0 l 369 63 l 285 63 l 285 658 l 13 557 l 121 472 z m -10 1033 l 251 683 l 175 1033 z "},"ī":{"ha":396,"x_min":0,"x_max":0,"o":"m 121 63 l 35 63 l 35 0 l 369 0 l 369 63 l 285 63 l 285 658 l 13 557 l 121 472 z m 61 889 l -4 800 l 361 800 l 426 889 z "},"į":{"ha":396,"x_min":0,"x_max":0,"o":"m 194 786 b 294 886 250 786 294 832 b 194 986 294 942 250 986 b 93 886 138 986 93 942 b 194 786 93 832 138 786 z m 121 63 l 35 63 l 35 0 l 249 0 b 58 -262 147 -75 58 -181 b 168 -372 58 -335 108 -372 b 319 -285 226 -372 274 -335 l 260 -285 b 167 -204 197 -285 167 -257 b 289 0 167 -140 219 -61 l 369 0 l 369 63 l 285 63 l 285 658 l 13 557 l 121 472 z "},"ĩ":{"ha":396,"x_min":0,"x_max":0,"o":"m 121 63 l 35 63 l 35 0 l 369 0 l 369 63 l 285 63 l 285 658 l 13 557 l 121 472 z m 340 786 l 450 1026 b 275 906 379 958 319 906 l 53 963 l -56 722 b 118 843 14 790 74 843 z "},"ȷ":{"ha":371,"x_min":0,"x_max":0,"o":"m -78 -403 b 279 -72 54 -403 229 -210 l 279 658 l 7 557 l 115 472 l 115 -54 b 32 -310 115 -185 72 -267 l -112 -226 b -172 -315 -147 -246 -172 -278 b -78 -403 -172 -364 -135 -403 z "},"ĵ":{"ha":371,"x_min":0,"x_max":0,"o":"m -78 -403 b 279 -72 54 -403 229 -210 l 279 658 l 7 557 l 115 472 l 115 -54 b 32 -310 115 -185 72 -267 l -112 -226 b -172 -315 -147 -246 -172 -278 b -78 -403 -172 -364 -135 -403 z m 186 913 l 388 678 l 249 1028 l 124 1028 l -15 678 z "},"ķ":{"ha":788,"x_min":0,"x_max":0,"o":"m 113 63 l 25 63 l 25 0 l 363 0 l 363 63 l 276 63 l 276 350 l 576 0 l 789 0 l 438 385 l 671 568 l 754 568 l 754 631 l 435 631 l 435 568 l 553 568 l 553 554 l 324 369 l 276 369 l 276 1083 l -17 989 l 113 907 z m 308 -164 b 340 -228 308 -192 321 -215 l 428 -228 b 282 -387 419 -285 368 -346 b 521 -197 415 -387 521 -297 b 408 -78 521 -132 479 -78 b 308 -164 347 -78 308 -119 z "},"ĸ":{"ha":796,"x_min":0,"x_max":0,"o":"m 121 63 l 35 63 l 35 0 l 369 0 l 369 63 l 285 63 l 285 350 l 585 0 l 797 0 l 446 385 l 679 568 l 763 568 l 763 631 l 444 631 l 444 568 l 561 568 l 561 554 l 332 369 l 285 369 l 285 658 l 13 557 l 121 472 z "},"ĺ":{"ha":389,"x_min":0,"x_max":0,"o":"m 113 63 l 25 63 l 25 0 l 363 0 l 363 63 l 276 63 l 276 1083 l -17 989 l 113 907 z m 492 1231 l 322 1342 l 71 1099 z "},"ľ":{"ha":578,"x_min":0,"x_max":0,"o":"m 113 63 l 25 63 l 25 0 l 363 0 l 363 63 l 276 63 l 276 1083 l -17 989 l 113 907 z m 572 1069 l 407 1069 l 356 704 z "},"ļ":{"ha":389,"x_min":0,"x_max":0,"o":"m 113 63 l 25 63 l 25 0 l 363 0 l 363 63 l 276 63 l 276 1083 l -17 989 l 113 907 z m 88 -164 b 119 -228 88 -192 100 -215 l 207 -228 b 61 -387 199 -285 147 -346 b 300 -197 194 -387 300 -297 b 188 -78 300 -132 258 -78 b 88 -164 126 -78 88 -119 z "},"ŀ":{"ha":590,"x_min":0,"x_max":0,"o":"m 113 63 l 25 63 l 25 0 l 363 0 l 363 63 l 276 63 l 276 1083 l -17 989 l 113 907 z m 476 386 b 576 486 532 386 576 432 b 476 586 576 542 532 586 b 376 486 421 586 376 542 b 476 386 376 432 421 386 z "},"ł":{"ha":467,"x_min":0,"x_max":0,"o":"m 151 63 l 64 63 l 64 0 l 401 0 l 401 63 l 315 63 l 315 482 l 438 556 l 438 624 l 315 551 l 315 1083 l 22 989 l 151 907 l 151 471 l 29 399 l 29 329 l 151 403 z "},"ń":{"ha":804,"x_min":0,"x_max":0,"o":"m 121 472 l 121 63 l 35 63 l 35 0 l 369 0 l 369 63 l 285 63 l 285 486 b 399 535 314 510 354 535 b 529 396 483 535 529 485 l 529 63 l 443 63 l 443 0 l 779 0 l 779 63 l 693 63 l 693 440 b 517 644 693 560 632 644 b 310 538 425 644 360 589 l 285 538 l 285 658 l 13 557 z m 628 1033 l 443 1033 l 367 683 z "},"ň":{"ha":804,"x_min":0,"x_max":0,"o":"m 121 472 l 121 63 l 35 63 l 35 0 l 369 0 l 369 63 l 285 63 l 285 486 b 399 535 314 510 354 535 b 529 396 483 535 529 485 l 529 63 l 443 63 l 443 0 l 779 0 l 779 63 l 693 63 l 693 440 b 517 644 693 560 632 644 b 310 538 425 644 360 589 l 285 538 l 285 658 l 13 557 z m 401 839 l 200 1074 l 339 724 l 464 724 l 603 1074 z "},"ņ":{"ha":804,"x_min":0,"x_max":0,"o":"m 121 472 l 121 63 l 35 63 l 35 0 l 369 0 l 369 63 l 285 63 l 285 486 b 399 535 314 510 354 535 b 529 396 483 535 529 485 l 529 63 l 443 63 l 443 0 l 779 0 l 779 63 l 693 63 l 693 440 b 517 644 693 560 632 644 b 310 538 425 644 360 589 l 285 538 l 285 658 l 13 557 z m 300 -164 b 332 -228 300 -192 313 -215 l 419 -228 b 274 -387 411 -285 360 -346 b 513 -197 407 -387 513 -297 b 400 -78 513 -132 471 -78 b 300 -164 339 -78 300 -119 z "},"ñ":{"ha":804,"x_min":0,"x_max":0,"o":"m 121 472 l 121 63 l 35 63 l 35 0 l 369 0 l 369 63 l 285 63 l 285 486 b 399 535 314 510 354 535 b 529 396 483 535 529 485 l 529 63 l 443 63 l 443 0 l 779 0 l 779 63 l 693 63 l 693 440 b 517 644 693 560 632 644 b 310 538 425 644 360 589 l 285 538 l 285 658 l 13 557 z m 563 786 l 672 1026 b 497 906 601 958 542 906 l 275 963 l 167 722 b 340 843 236 790 296 843 z "},"ŋ":{"ha":785,"x_min":0,"x_max":0,"o":"m 693 -72 l 693 440 b 517 644 693 560 632 644 b 310 538 425 644 360 589 l 285 538 l 285 658 l 13 557 l 121 472 l 121 63 l 35 63 l 35 0 l 369 0 l 369 63 l 285 63 l 285 486 b 399 535 314 510 354 535 b 529 396 483 535 529 485 l 529 -54 b 446 -310 529 -185 486 -267 l 301 -226 b 242 -315 267 -246 242 -278 b 336 -403 242 -364 279 -403 b 693 -72 468 -403 643 -210 z "},"ó":{"ha":757,"x_min":0,"x_max":0,"o":"m 40 315 b 378 -14 40 124 201 -14 b 715 315 556 -14 715 124 b 378 644 715 507 556 644 b 40 315 201 644 40 507 z m 219 315 b 378 589 219 472 293 589 b 538 315 464 589 538 474 b 378 40 538 157 464 40 b 219 315 293 40 219 157 z m 575 1033 l 390 1033 l 314 683 z "},"ŏ":{"ha":757,"x_min":0,"x_max":0,"o":"m 40 315 b 378 -14 40 124 201 -14 b 715 315 556 -14 715 124 b 378 644 715 507 556 644 b 40 315 201 644 40 507 z m 219 315 b 378 589 219 472 293 589 b 538 315 464 589 538 474 b 378 40 538 157 464 40 b 219 315 293 40 219 157 z m 378 828 b 204 1067 301 828 247 910 b 378 711 176 883 253 711 b 551 1067 503 711 579 883 b 378 828 508 910 454 828 z "},"ô":{"ha":757,"x_min":0,"x_max":0,"o":"m 40 315 b 378 -14 40 124 201 -14 b 715 315 556 -14 715 124 b 378 644 715 507 556 644 b 40 315 201 644 40 507 z m 219 315 b 378 589 219 472 293 589 b 538 315 464 589 538 474 b 378 40 538 157 464 40 b 219 315 293 40 219 157 z m 378 913 l 579 678 l 440 1028 l 315 1028 l 176 678 z "},"ö":{"ha":757,"x_min":0,"x_max":0,"o":"m 40 315 b 378 -14 40 124 201 -14 b 715 315 556 -14 715 124 b 378 644 715 507 556 644 b 40 315 201 644 40 507 z m 219 315 b 378 589 219 472 293 589 b 538 315 464 589 538 474 b 378 40 538 157 464 40 b 219 315 293 40 219 157 z m 510 782 b 601 871 561 782 601 821 b 510 961 601 922 561 961 b 418 871 457 961 418 922 b 510 782 418 821 457 782 z m 244 782 b 338 871 297 782 338 821 b 244 961 338 922 297 961 b 154 871 193 961 154 922 b 244 782 154 821 193 782 z "},"ò":{"ha":757,"x_min":0,"x_max":0,"o":"m 40 315 b 378 -14 40 124 201 -14 b 715 315 556 -14 715 124 b 378 644 715 507 556 644 b 40 315 201 644 40 507 z m 219 315 b 378 589 219 472 293 589 b 538 315 464 589 538 474 b 378 40 538 157 464 40 b 219 315 293 40 219 157 z m 182 1033 l 443 683 l 367 1033 z "},"ő":{"ha":757,"x_min":0,"x_max":0,"o":"m 40 315 b 378 -14 40 124 201 -14 b 715 315 556 -14 715 124 b 378 644 715 507 556 644 b 40 315 201 644 40 507 z m 219 315 b 378 589 219 472 293 589 b 538 315 464 589 538 474 b 378 40 538 157 464 40 b 219 315 293 40 219 157 z m 497 1033 l 342 1033 l 254 683 z m 707 1033 l 551 1033 l 464 683 z "},"ō":{"ha":757,"x_min":0,"x_max":0,"o":"m 40 315 b 378 -14 40 124 201 -14 b 715 315 556 -14 715 124 b 378 644 715 507 556 644 b 40 315 201 644 40 507 z m 219 315 b 378 589 219 472 293 589 b 538 315 464 589 538 474 b 378 40 538 157 464 40 b 219 315 293 40 219 157 z m 233 889 l 168 800 l 533 800 l 599 889 z "},"ø":{"ha":757,"x_min":0,"x_max":0,"o":"m 40 315 b 161 64 40 211 89 122 l 67 -64 l 140 -64 l 210 31 b 378 -14 260 1 318 -14 b 715 315 556 -14 715 124 b 603 561 715 417 671 503 l 689 679 l 617 679 l 554 596 b 378 644 503 626 442 644 b 40 315 201 644 40 507 z m 219 315 b 378 589 219 472 293 589 b 492 510 421 589 463 560 l 242 172 b 219 315 228 214 219 263 z m 538 315 b 378 40 538 157 464 40 b 271 113 338 40 299 67 l 518 447 b 538 315 531 410 538 364 z "},"ǿ":{"ha":757,"x_min":0,"x_max":0,"o":"m 40 315 b 161 64 40 211 89 122 l 67 -64 l 140 -64 l 210 31 b 378 -14 260 1 318 -14 b 715 315 556 -14 715 124 b 603 561 715 417 671 503 l 689 679 l 617 679 l 554 596 b 378 644 503 626 442 644 b 40 315 201 644 40 507 z m 219 315 b 378 589 219 472 293 589 b 492 510 421 589 463 560 l 242 172 b 219 315 228 214 219 263 z m 538 315 b 378 40 538 157 464 40 b 271 113 338 40 299 67 l 518 447 b 538 315 531 410 538 364 z m 575 1033 l 390 1033 l 314 683 z "},"õ":{"ha":757,"x_min":0,"x_max":0,"o":"m 40 315 b 378 -14 40 124 201 -14 b 715 315 556 -14 715 124 b 378 644 715 507 556 644 b 40 315 201 644 40 507 z m 219 315 b 378 589 219 472 293 589 b 538 315 464 589 538 474 b 378 40 538 157 464 40 b 219 315 293 40 219 157 z m 539 786 l 649 1026 b 474 906 578 958 518 906 l 251 963 l 143 722 b 317 843 213 790 272 843 z "},"œ":{"ha":1165,"x_min":0,"x_max":0,"o":"m 619 522 b 378 644 561 594 486 644 b 40 315 201 644 40 507 b 378 -14 40 124 201 -14 b 618 104 475 -14 558 29 l 644 104 b 863 -14 696 29 776 -14 b 1124 215 993 -14 1101 68 b 924 122 1075 150 1004 122 b 694 368 797 122 694 221 l 694 378 l 1129 378 b 874 644 1129 521 1033 644 b 647 522 782 644 696 596 z m 219 315 b 378 589 219 472 293 589 b 538 315 464 589 538 474 b 378 40 538 157 464 40 b 219 315 293 40 219 157 z m 847 578 b 969 433 922 578 969 519 l 700 433 b 847 578 719 526 779 578 z "},"ŕ":{"ha":593,"x_min":0,"x_max":0,"o":"m 121 472 l 121 63 l 35 63 l 35 0 l 411 0 l 411 63 l 285 63 l 285 456 l 383 526 l 493 440 b 583 553 539 458 583 499 b 488 644 583 607 542 644 b 308 519 419 644 367 585 l 285 519 l 285 658 l 13 557 z m 524 1033 l 339 1033 l 263 683 z "},"ř":{"ha":593,"x_min":0,"x_max":0,"o":"m 121 472 l 121 63 l 35 63 l 35 0 l 411 0 l 411 63 l 285 63 l 285 456 l 383 526 l 493 440 b 583 553 539 458 583 499 b 488 644 583 607 542 644 b 308 519 419 644 367 585 l 285 519 l 285 658 l 13 557 z m 307 839 l 106 1074 l 244 724 l 369 724 l 508 1074 z "},"ŗ":{"ha":593,"x_min":0,"x_max":0,"o":"m 121 472 l 121 63 l 35 63 l 35 0 l 411 0 l 411 63 l 285 63 l 285 456 l 383 526 l 493 440 b 583 553 539 458 583 499 b 488 644 583 607 542 644 b 308 519 419 644 367 585 l 285 519 l 285 658 l 13 557 z m 103 -164 b 135 -228 103 -192 115 -215 l 222 -228 b 76 -387 214 -285 163 -346 b 315 -197 210 -387 315 -297 b 203 -78 315 -132 274 -78 b 103 -164 142 -78 103 -119 z "},"ś":{"ha":571,"x_min":0,"x_max":0,"o":"m 50 57 b 263 -14 92 18 175 -14 b 517 196 401 -14 517 74 b 201 501 517 411 201 371 b 283 578 201 549 236 578 b 489 406 357 578 424 504 l 489 644 l 414 594 b 276 644 383 621 332 644 b 63 446 164 644 63 563 b 371 140 63 233 371 282 b 274 53 371 83 326 53 b 50 239 196 53 114 117 z m 503 1033 l 318 1033 l 242 683 z "},"š":{"ha":571,"x_min":0,"x_max":0,"o":"m 50 57 b 263 -14 92 18 175 -14 b 517 196 401 -14 517 74 b 201 501 517 411 201 371 b 283 578 201 549 236 578 b 489 406 357 578 424 504 l 489 644 l 414 594 b 276 644 383 621 332 644 b 63 446 164 644 63 563 b 371 140 63 233 371 282 b 274 53 371 83 326 53 b 50 239 196 53 114 117 z m 286 839 l 85 1074 l 224 724 l 349 724 l 488 1074 z "},"ş":{"ha":571,"x_min":0,"x_max":0,"o":"m 50 57 b 242 -14 89 21 163 -8 l 158 -149 b 296 -250 229 -165 296 -197 b 221 -336 296 -292 256 -328 l 157 -246 b 89 -308 121 -246 89 -271 b 175 -371 89 -343 124 -371 b 389 -206 267 -371 389 -292 b 257 -72 389 -135 326 -99 l 263 -14 b 263 -14 263 -14 263 -14 b 517 196 401 -14 517 74 b 201 501 517 411 201 371 b 283 578 201 549 236 578 b 489 406 357 578 424 504 l 489 644 l 414 594 b 276 644 383 621 332 644 b 63 446 164 644 63 563 b 371 140 63 233 371 282 b 274 53 371 83 326 53 b 50 239 196 53 114 117 z "},"ŝ":{"ha":571,"x_min":0,"x_max":0,"o":"m 50 57 b 263 -14 92 18 175 -14 b 517 196 401 -14 517 74 b 201 501 517 411 201 371 b 283 578 201 549 236 578 b 489 406 357 578 424 504 l 489 644 l 414 594 b 276 644 383 621 332 644 b 63 446 164 644 63 563 b 371 140 63 233 371 282 b 274 53 371 83 326 53 b 50 239 196 53 114 117 z m 286 913 l 488 678 l 349 1028 l 224 1028 l 85 678 z "},"ș":{"ha":571,"x_min":0,"x_max":0,"o":"m 50 57 b 263 -14 92 18 175 -14 b 517 196 401 -14 517 74 b 201 501 517 411 201 371 b 283 578 201 549 236 578 b 489 406 357 578 424 504 l 489 644 l 414 594 b 276 644 383 621 332 644 b 63 446 164 644 63 563 b 371 140 63 233 371 282 b 274 53 371 83 326 53 b 50 239 196 53 114 117 z m 167 -164 b 199 -228 167 -192 179 -215 l 286 -228 b 140 -387 278 -285 226 -346 b 379 -197 274 -387 379 -297 b 267 -78 379 -132 338 -78 b 167 -164 206 -78 167 -119 z "},"ŧ":{"ha":547,"x_min":0,"x_max":0,"o":"m 461 335 l 485 392 l 285 392 l 285 536 l 475 536 l 519 611 l 285 611 l 285 778 l 24 575 l 132 513 l 129 392 l 40 392 l 15 335 l 128 335 l 125 169 b 310 -14 125 50 210 -14 b 532 161 417 -14 500 47 b 399 101 492 119 449 101 b 285 224 338 101 285 138 l 285 335 z "},"ť":{"ha":519,"x_min":0,"x_max":0,"o":"m 3 575 l 111 513 l 104 169 b 289 -14 104 50 189 -14 b 511 161 396 -14 479 47 b 378 101 471 119 428 101 b 264 224 317 101 264 138 l 264 536 l 454 536 l 499 611 l 264 611 l 264 778 z m 549 1038 l 383 1038 l 332 672 z "},"ţ":{"ha":519,"x_min":0,"x_max":0,"o":"m 188 -371 b 401 -206 279 -371 401 -292 b 269 -72 401 -135 339 -99 l 275 -14 b 289 -14 279 -14 285 -14 b 511 161 396 -14 479 47 b 378 101 471 119 428 101 b 264 224 317 101 264 138 l 264 536 l 454 536 l 499 611 l 264 611 l 264 778 l 3 575 l 111 513 l 104 169 b 256 -11 104 64 171 1 l 171 -149 b 308 -250 242 -165 308 -197 b 233 -336 308 -292 268 -328 l 169 -246 b 101 -308 133 -246 101 -271 b 188 -371 101 -343 136 -371 z "},"ț":{"ha":519,"x_min":0,"x_max":0,"o":"m 3 575 l 111 513 l 104 169 b 289 -14 104 50 189 -14 b 511 161 396 -14 479 47 b 378 101 471 119 428 101 b 264 224 317 101 264 138 l 264 536 l 454 536 l 499 611 l 264 611 l 264 778 z m 161 -164 b 193 -228 161 -192 174 -215 l 281 -228 b 135 -387 272 -285 221 -346 b 374 -197 268 -387 374 -297 b 261 -78 374 -132 332 -78 b 161 -164 200 -78 161 -119 z "},"þ":{"ha":796,"x_min":0,"x_max":0,"o":"m 107 907 l 107 -326 l 21 -326 l 21 -389 l 407 -389 l 407 -326 l 271 -326 l 271 13 b 408 -14 311 -6 358 -14 b 756 346 583 -14 756 132 b 488 644 756 513 650 644 b 292 556 407 644 339 601 l 271 556 l 271 1083 l -21 989 z m 271 121 l 271 506 b 364 544 286 525 322 544 b 586 289 494 544 586 451 b 399 46 586 128 501 46 b 271 121 338 46 290 76 z "},"ú":{"ha":790,"x_min":0,"x_max":0,"o":"m 510 -22 l 782 56 l 674 131 l 674 638 l 414 618 l 414 556 l 510 556 l 510 124 b 411 85 493 104 454 85 b 275 233 328 85 275 139 l 275 638 l 18 618 l 18 556 l 111 556 l 111 190 b 297 -14 111 71 181 -14 b 485 72 375 -14 433 26 l 510 72 z m 600 1033 l 415 1033 l 339 683 z "},"ŭ":{"ha":790,"x_min":0,"x_max":0,"o":"m 510 -22 l 782 56 l 674 131 l 674 638 l 414 618 l 414 556 l 510 556 l 510 124 b 411 85 493 104 454 85 b 275 233 328 85 275 139 l 275 638 l 18 618 l 18 556 l 111 556 l 111 190 b 297 -14 111 71 181 -14 b 485 72 375 -14 433 26 l 510 72 z m 382 828 b 208 1067 306 828 251 910 b 382 711 181 883 257 711 b 556 1067 507 711 583 883 b 382 828 513 910 458 828 z "},"û":{"ha":790,"x_min":0,"x_max":0,"o":"m 510 -22 l 782 56 l 674 131 l 674 638 l 414 618 l 414 556 l 510 556 l 510 124 b 411 85 493 104 454 85 b 275 233 328 85 275 139 l 275 638 l 18 618 l 18 556 l 111 556 l 111 190 b 297 -14 111 71 181 -14 b 485 72 375 -14 433 26 l 510 72 z m 382 913 l 583 678 l 444 1028 l 319 1028 l 181 678 z "},"ü":{"ha":790,"x_min":0,"x_max":0,"o":"m 510 -22 l 782 56 l 674 131 l 674 638 l 414 618 l 414 556 l 510 556 l 510 124 b 411 85 493 104 454 85 b 275 233 328 85 275 139 l 275 638 l 18 618 l 18 556 l 111 556 l 111 190 b 297 -14 111 71 181 -14 b 485 72 375 -14 433 26 l 510 72 z m 524 782 b 615 871 575 782 615 821 b 524 961 615 922 575 961 b 432 871 471 961 432 922 b 524 782 432 821 471 782 z m 258 782 b 351 871 311 782 351 821 b 258 961 351 922 311 961 b 168 871 207 961 168 922 b 258 782 168 821 207 782 z "},"ù":{"ha":790,"x_min":0,"x_max":0,"o":"m 510 -22 l 782 56 l 674 131 l 674 638 l 414 618 l 414 556 l 510 556 l 510 124 b 411 85 493 104 454 85 b 275 233 328 85 275 139 l 275 638 l 18 618 l 18 556 l 111 556 l 111 190 b 297 -14 111 71 181 -14 b 485 72 375 -14 433 26 l 510 72 z m 200 1033 l 461 683 l 385 1033 z "},"ű":{"ha":790,"x_min":0,"x_max":0,"o":"m 510 -22 l 782 56 l 674 131 l 674 638 l 414 618 l 414 556 l 510 556 l 510 124 b 411 85 493 104 454 85 b 275 233 328 85 275 139 l 275 638 l 18 618 l 18 556 l 111 556 l 111 190 b 297 -14 111 71 181 -14 b 485 72 375 -14 433 26 l 510 72 z m 493 1033 l 338 1033 l 250 683 z m 703 1033 l 547 1033 l 460 683 z "},"ū":{"ha":790,"x_min":0,"x_max":0,"o":"m 510 -22 l 782 56 l 674 131 l 674 638 l 414 618 l 414 556 l 510 556 l 510 124 b 411 85 493 104 454 85 b 275 233 328 85 275 139 l 275 638 l 18 618 l 18 556 l 111 556 l 111 190 b 297 -14 111 71 181 -14 b 485 72 375 -14 433 26 l 510 72 z m 254 889 l 189 800 l 554 800 l 619 889 z "},"ų":{"ha":790,"x_min":0,"x_max":0,"o":"m 579 -285 l 518 -285 b 425 -199 456 -285 425 -253 b 617 10 425 -122 488 -29 l 782 56 l 674 131 l 674 638 l 414 618 l 414 556 l 510 556 l 510 124 b 411 85 493 104 454 85 b 275 233 328 85 275 139 l 275 638 l 18 618 l 18 556 l 111 556 l 111 190 b 297 -14 111 71 181 -14 b 485 72 375 -14 433 26 l 510 72 l 510 -7 b 318 -262 403 -78 318 -175 b 428 -372 318 -335 368 -372 b 579 -285 486 -372 532 -335 z "},"ů":{"ha":790,"x_min":0,"x_max":0,"o":"m 510 -22 l 782 56 l 674 131 l 674 638 l 414 618 l 414 556 l 510 556 l 510 124 b 411 85 493 104 454 85 b 275 233 328 85 275 139 l 275 638 l 18 618 l 18 556 l 111 556 l 111 190 b 297 -14 111 71 181 -14 b 485 72 375 -14 433 26 l 510 72 z m 386 1017 b 242 874 307 1017 242 953 b 386 731 242 796 307 731 b 531 874 465 731 531 796 b 386 1017 531 953 465 1017 z m 386 958 b 472 874 435 958 472 921 b 386 789 472 826 435 789 b 300 874 338 789 300 826 b 386 958 300 921 338 958 z "},"ũ":{"ha":790,"x_min":0,"x_max":0,"o":"m 510 -22 l 782 56 l 674 131 l 674 638 l 414 618 l 414 556 l 510 556 l 510 124 b 411 85 493 104 454 85 b 275 233 328 85 275 139 l 275 638 l 18 618 l 18 556 l 111 556 l 111 190 b 297 -14 111 71 181 -14 b 485 72 375 -14 433 26 l 510 72 z m 553 786 l 663 1026 b 488 906 592 958 532 906 l 265 963 l 157 722 b 331 843 226 790 286 843 z "},"ẃ":{"ha":1024,"x_min":0,"x_max":0,"o":"m 879 568 l 733 210 l 599 568 l 697 568 l 697 631 l 386 631 l 386 568 l 443 568 l 492 446 l 385 207 l 243 568 l 319 568 l 319 631 l 8 631 l 8 568 l 71 568 l 336 -42 l 521 372 l 686 -42 l 953 568 l 1015 568 l 1015 631 l 765 631 l 765 568 z m 763 1033 l 578 1033 l 501 683 z "},"ŵ":{"ha":1024,"x_min":0,"x_max":0,"o":"m 879 568 l 733 210 l 599 568 l 697 568 l 697 631 l 386 631 l 386 568 l 443 568 l 492 446 l 385 207 l 243 568 l 319 568 l 319 631 l 8 631 l 8 568 l 71 568 l 336 -42 l 521 372 l 686 -42 l 953 568 l 1015 568 l 1015 631 l 765 631 l 765 568 z m 518 913 l 719 678 l 581 1028 l 456 1028 l 317 678 z "},"ẁ":{"ha":1024,"x_min":0,"x_max":0,"o":"m 879 568 l 733 210 l 599 568 l 697 568 l 697 631 l 386 631 l 386 568 l 443 568 l 492 446 l 385 207 l 243 568 l 319 568 l 319 631 l 8 631 l 8 568 l 71 568 l 336 -42 l 521 372 l 686 -42 l 953 568 l 1015 568 l 1015 631 l 765 631 l 765 568 z m 319 1033 l 581 683 l 504 1033 z "},"ẅ":{"ha":1024,"x_min":0,"x_max":0,"o":"m 879 568 l 733 210 l 599 568 l 697 568 l 697 631 l 386 631 l 386 568 l 443 568 l 492 446 l 385 207 l 243 568 l 319 568 l 319 631 l 8 631 l 8 568 l 71 568 l 336 -42 l 521 372 l 686 -42 l 953 568 l 1015 568 l 1015 631 l 765 631 l 765 568 z m 650 782 b 742 871 701 782 742 821 b 650 961 742 922 701 961 b 558 871 597 961 558 922 b 650 782 558 821 597 782 z m 385 782 b 478 871 438 782 478 821 b 385 961 478 922 438 961 b 294 871 333 961 294 922 b 385 782 294 821 333 782 z "},"ý":{"ha":718,"x_min":0,"x_max":0,"o":"m 572 568 l 401 150 l 250 568 l 357 568 l 357 631 l 8 631 l 8 568 l 71 568 l 313 -32 l 201 -282 l 56 -226 b 21 -306 32 -250 21 -278 b 124 -403 21 -356 58 -403 b 281 -268 206 -403 249 -339 l 647 568 l 710 568 l 710 631 l 457 631 l 457 568 z m 626 1033 l 442 1033 l 365 683 z "},"ŷ":{"ha":718,"x_min":0,"x_max":0,"o":"m 572 568 l 401 150 l 250 568 l 357 568 l 357 631 l 8 631 l 8 568 l 71 568 l 313 -32 l 201 -282 l 56 -226 b 21 -306 32 -250 21 -278 b 124 -403 21 -356 58 -403 b 281 -268 206 -403 249 -339 l 647 568 l 710 568 l 710 631 l 457 631 l 457 568 z m 388 913 l 589 678 l 450 1028 l 325 1028 l 186 678 z "},"ÿ":{"ha":718,"x_min":0,"x_max":0,"o":"m 572 568 l 401 150 l 250 568 l 357 568 l 357 631 l 8 631 l 8 568 l 71 568 l 313 -32 l 201 -282 l 56 -226 b 21 -306 32 -250 21 -278 b 124 -403 21 -356 58 -403 b 281 -268 206 -403 249 -339 l 647 568 l 710 568 l 710 631 l 457 631 l 457 568 z m 526 782 b 618 871 578 782 618 821 b 526 961 618 922 578 961 b 435 871 474 961 435 922 b 526 782 435 821 474 782 z m 261 782 b 354 871 314 782 354 821 b 261 961 354 922 314 961 b 171 871 210 961 171 922 b 261 782 171 821 210 782 z "},"ỳ":{"ha":718,"x_min":0,"x_max":0,"o":"m 572 568 l 401 150 l 250 568 l 357 568 l 357 631 l 8 631 l 8 568 l 71 568 l 313 -32 l 201 -282 l 56 -226 b 21 -306 32 -250 21 -278 b 124 -403 21 -356 58 -403 b 281 -268 206 -403 249 -339 l 647 568 l 710 568 l 710 631 l 457 631 l 457 568 z m 185 1033 l 446 683 l 369 1033 z "},"ź":{"ha":664,"x_min":0,"x_max":0,"o":"m 242 60 l 626 631 l 154 631 l 103 686 l 42 399 l 225 569 l 410 569 l 17 0 l 603 0 l 640 274 l 474 60 z m 549 1033 l 364 1033 l 288 683 z "},"ž":{"ha":664,"x_min":0,"x_max":0,"o":"m 242 60 l 626 631 l 154 631 l 103 686 l 42 399 l 225 569 l 410 569 l 17 0 l 603 0 l 640 274 l 474 60 z m 344 839 l 143 1074 l 282 724 l 407 724 l 546 1074 z "},"ż":{"ha":664,"x_min":0,"x_max":0,"o":"m 242 60 l 626 631 l 154 631 l 103 686 l 42 399 l 225 569 l 410 569 l 17 0 l 603 0 l 640 274 l 474 60 z m 344 786 b 444 886 400 786 444 832 b 344 986 444 942 400 986 b 244 886 289 986 244 942 b 344 786 244 832 289 786 z "},"º":{"ha":586,"x_min":0,"x_max":0,"o":"m 46 731 b 293 492 46 592 163 492 b 540 731 424 492 540 592 b 293 969 540 869 424 969 b 46 731 163 969 46 869 z m 188 731 b 293 931 188 844 236 931 b 399 731 350 931 399 846 b 293 532 399 617 350 532 b 188 731 236 532 188 617 z m 132 404 l 100 339 l 454 339 l 486 404 z "},"ª":{"ha":529,"x_min":0,"x_max":0,"o":"m 289 813 l 289 765 l 179 722 b 47 590 108 693 47 657 b 150 493 47 532 96 493 b 276 564 210 493 250 532 l 290 564 b 390 492 306 524 339 492 b 506 601 453 492 506 538 b 458 578 493 586 475 578 b 417 629 433 578 417 596 l 417 835 b 294 968 417 919 367 968 b 44 799 196 968 78 894 l 169 799 l 169 901 b 289 813 258 918 289 874 z m 289 728 l 289 594 b 229 572 272 581 251 572 b 171 626 196 572 171 589 b 250 711 171 668 199 689 z m 103 404 l 71 339 l 425 339 l 457 404 z "},"ﬀ":{"ha":888,"x_min":0,"x_max":0,"o":"m 121 63 l 35 63 l 35 0 l 369 0 l 369 63 l 285 63 l 285 536 l 544 536 l 544 63 l 458 63 l 458 0 l 836 0 l 836 63 l 708 63 l 708 536 l 863 536 l 907 611 l 708 611 b 871 1018 708 818 763 972 l 999 897 b 1089 992 1051 904 1089 939 b 961 1083 1089 1043 1042 1083 b 544 639 765 1083 575 896 l 544 611 l 285 611 b 400 994 285 804 315 947 l 499 889 b 586 975 549 894 585 929 b 476 1061 586 1024 549 1061 b 121 639 308 1061 154 881 l 8 568 l 121 490 z "},"ﬁ":{"ha":821,"x_min":0,"x_max":0,"o":"m 121 63 l 35 63 l 35 0 l 369 0 l 369 63 l 285 63 l 285 536 l 544 536 l 544 63 l 458 63 l 458 0 l 794 0 l 794 63 l 708 63 l 708 658 l 585 611 l 285 611 b 458 1021 285 811 349 972 l 588 886 b 686 988 643 893 686 933 b 554 1083 686 1043 638 1083 b 121 639 350 1083 151 896 l 8 568 l 121 490 z "},"ﬃ":{"ha":1246,"x_min":0,"x_max":0,"o":"m 544 63 l 458 63 l 458 0 l 794 0 l 794 63 l 708 63 l 708 536 l 969 536 l 969 63 l 883 63 l 883 0 l 1219 0 l 1219 63 l 1133 63 l 1133 658 l 1010 611 l 708 611 b 882 1021 708 811 772 972 l 1013 886 b 1111 988 1068 893 1111 933 b 978 1083 1111 1043 1063 1083 b 544 639 774 1083 575 896 l 544 611 l 285 611 b 400 994 285 804 315 947 l 499 889 b 586 975 549 894 585 929 b 476 1061 586 1024 549 1061 b 121 639 308 1061 154 881 l 8 568 l 121 490 l 121 63 l 35 63 l 35 0 l 369 0 l 369 63 l 285 63 l 285 536 l 544 536 z "},"ﬂ":{"ha":822,"x_min":0,"x_max":0,"o":"m 474 611 l 285 611 b 488 1015 285 838 349 1015 b 544 997 511 1015 529 1008 l 544 63 l 458 63 l 458 0 l 794 0 l 794 63 l 708 63 l 708 1057 b 543 1083 656 1074 606 1083 b 121 639 310 1083 151 888 l 8 568 l 121 490 l 121 63 l 35 63 l 35 0 l 371 0 l 371 63 l 285 63 l 285 536 l 428 536 z "},"ﬄ":{"ha":1246,"x_min":0,"x_max":0,"o":"m 969 63 l 883 63 l 883 0 l 1219 0 l 1219 63 l 1133 63 l 1133 1057 b 968 1083 1081 1074 1031 1083 b 544 639 733 1083 575 888 l 544 611 l 285 611 b 400 994 285 804 315 947 l 499 889 b 586 975 549 894 585 929 b 476 1061 586 1024 549 1061 b 121 639 308 1061 154 881 l 8 568 l 121 490 l 121 63 l 35 63 l 35 0 l 369 0 l 369 63 l 285 63 l 285 536 l 544 536 l 544 63 l 458 63 l 458 0 l 794 0 l 794 63 l 708 63 l 708 536 l 853 536 l 897 611 l 708 611 b 911 1015 708 838 772 1015 b 969 997 935 1015 954 1008 z "},"&":{"ha":1186,"x_min":0,"x_max":0,"o":"m 1088 0 l 817 275 b 1033 610 893 374 965 490 l 1167 610 l 1167 678 l 799 678 l 799 610 l 933 610 l 933 582 b 769 324 883 490 829 400 l 513 585 l 513 610 b 689 790 606 638 689 696 b 464 972 689 896 583 972 b 219 746 321 972 219 867 b 297 569 219 674 251 621 l 297 539 b 69 257 186 488 69 403 b 372 -14 69 89 215 -14 b 710 151 496 -14 607 50 l 860 0 z m 357 813 b 460 918 357 879 403 918 b 568 792 528 918 568 860 b 476 622 568 726 539 656 b 357 813 411 688 357 746 z m 226 326 b 338 526 226 424 275 483 b 394 469 356 508 375 489 l 656 206 b 447 122 592 154 522 122 b 226 326 328 122 226 197 z "},"`":{"ha":694,"x_min":0,"x_max":0,"o":"m 217 1033 l 478 683 l 401 1033 z "},"´":{"ha":694,"x_min":0,"x_max":0,"o":"m 478 1033 l 293 1033 l 217 683 z "},"ˆ":{"ha":694,"x_min":0,"x_max":0,"o":"m 347 913 l 549 678 l 410 1028 l 285 1028 l 146 678 z "},"˜":{"ha":694,"x_min":0,"x_max":0,"o":"m 490 786 l 600 1026 b 425 906 529 958 469 906 l 203 963 l 94 722 b 268 843 164 790 224 843 z "},"¯":{"ha":694,"x_min":0,"x_max":0,"o":"m 197 889 l 132 800 l 497 800 l 563 889 z "},"˘":{"ha":694,"x_min":0,"x_max":0,"o":"m 347 828 b 174 1067 271 828 217 910 b 347 711 146 883 222 711 b 521 1067 472 711 549 883 b 347 828 478 910 424 828 z "},"˙":{"ha":694,"x_min":0,"x_max":0,"o":"m 347 786 b 447 886 403 786 447 832 b 347 986 447 942 403 986 b 247 886 292 986 247 942 b 347 786 247 832 292 786 z "},"¨":{"ha":694,"x_min":0,"x_max":0,"o":"m 479 782 b 571 871 531 782 571 821 b 479 961 571 922 531 961 b 388 871 426 961 388 922 b 479 782 388 821 426 782 z m 214 782 b 307 871 267 782 307 821 b 214 961 307 922 267 961 b 124 871 163 961 124 922 b 214 782 124 821 163 782 z "},"˚":{"ha":694,"x_min":0,"x_max":0,"o":"m 347 1017 b 203 874 268 1017 203 953 b 347 731 203 796 268 731 b 492 874 426 731 492 796 b 347 1017 492 953 426 1017 z m 347 958 b 433 874 396 958 433 921 b 347 789 433 826 396 789 b 261 874 299 789 261 826 b 347 958 261 921 299 958 z "},"˝":{"ha":694,"x_min":0,"x_max":0,"o":"m 364 1033 l 208 1033 l 121 683 z m 574 1033 l 418 1033 l 331 683 z "},"ˇ":{"ha":694,"x_min":0,"x_max":0,"o":"m 347 839 l 146 1074 l 285 724 l 410 724 l 549 1074 z "},"":{"ha":694,"x_min":0,"x_max":0,"o":"m 251 -164 b 283 -228 251 -192 264 -215 l 371 -228 b 225 -387 363 -285 311 -346 b 464 -197 358 -387 464 -297 b 351 -78 464 -132 422 -78 b 251 -164 290 -78 251 -119 z "},"¸":{"ha":694,"x_min":0,"x_max":0,"o":"m 257 -371 b 471 -206 349 -371 471 -292 b 339 -72 471 -135 408 -99 l 347 25 l 240 -149 b 378 -250 311 -165 378 -197 b 303 -336 378 -292 338 -328 l 239 -246 b 171 -308 203 -246 171 -271 b 257 -371 171 -343 206 -371 z "},"˛":{"ha":694,"x_min":0,"x_max":0,"o":"m 447 38 b 201 -262 325 -36 201 -165 b 311 -372 201 -335 251 -372 b 463 -285 369 -372 417 -335 l 403 -285 b 310 -204 340 -285 310 -257 b 457 21 310 -133 376 -42 z "},".":{"ha":386,"x_min":0,"x_max":0,"o":"m 307 99 b 192 215 307 163 260 215 b 79 99 128 215 79 163 b 192 -12 79 38 128 -12 b 307 99 260 -12 307 38 z "},",":{"ha":386,"x_min":0,"x_max":0,"o":"m 65 113 b 107 31 65 76 83 46 l 204 31 b 222 -25 217 18 222 0 b 39 -275 222 -124 135 -214 b 331 26 175 -275 331 -143 b 179 217 331 133 276 217 b 65 113 115 217 65 169 z "},":":{"ha":386,"x_min":0,"x_max":0,"o":"m 307 99 b 192 215 307 163 260 215 b 79 99 128 215 79 163 b 192 -12 79 38 128 -12 b 307 99 260 -12 307 38 z m 307 496 b 192 613 307 560 260 613 b 79 496 128 613 79 560 b 192 385 79 435 128 385 b 307 496 260 385 307 435 z "},";":{"ha":386,"x_min":0,"x_max":0,"o":"m 65 113 b 107 31 65 76 83 46 l 204 31 b 222 -25 217 18 222 0 b 39 -275 222 -124 135 -214 b 331 26 175 -275 331 -143 b 179 217 331 133 276 217 b 65 113 115 217 65 169 z m 307 496 b 192 613 307 560 260 613 b 79 496 128 613 79 560 b 192 385 79 435 128 385 b 307 496 260 385 307 435 z "},"…":{"ha":1056,"x_min":0,"x_max":0,"o":"m 976 99 b 861 215 976 163 929 215 b 749 99 797 215 749 163 b 861 -12 749 38 797 -12 b 976 99 929 -12 976 38 z m 642 99 b 526 215 642 163 594 215 b 414 99 463 215 414 163 b 526 -12 414 38 463 -12 b 642 99 594 -12 642 38 z m 307 99 b 192 215 307 163 260 215 b 79 99 128 215 79 163 b 192 -12 79 38 128 -12 b 307 99 260 -12 307 38 z "},"!":{"ha":436,"x_min":0,"x_max":0,"o":"m 333 849 b 218 972 333 922 281 972 b 103 849 156 972 103 922 l 218 283 z m 332 99 b 217 215 332 163 285 215 b 104 99 153 215 104 163 b 217 -12 104 38 153 -12 b 332 99 285 -12 332 38 z "},"¡":{"ha":433,"x_min":0,"x_max":0,"o":"m 333 111 l 218 676 l 103 111 b 218 -12 103 38 156 -12 b 333 111 281 -12 333 38 z m 332 861 b 217 972 332 922 285 972 b 104 861 153 972 104 922 b 217 744 104 797 153 744 b 332 861 285 744 332 797 z "},"?":{"ha":665,"x_min":0,"x_max":0,"o":"m 257 919 b 450 735 372 914 450 832 b 156 490 450 614 333 525 l 265 356 b 606 683 475 404 606 525 b 258 972 606 849 458 972 b 57 850 136 972 57 919 b 164 750 57 797 107 754 z m 419 99 b 304 215 419 163 372 215 b 192 99 240 215 192 163 b 304 -12 192 38 240 -12 b 419 99 372 -12 419 38 z "},"¿":{"ha":665,"x_min":0,"x_max":0,"o":"m 408 42 b 215 226 293 47 215 129 b 510 471 215 347 332 436 l 400 606 b 60 278 190 557 60 436 b 407 -11 60 113 207 -11 b 608 111 529 -11 608 42 b 501 211 608 164 558 207 z m 246 863 b 361 746 246 799 293 746 b 474 863 425 746 474 799 b 361 974 474 924 425 974 b 246 863 293 974 246 924 z "},"‘":{"ha":378,"x_min":0,"x_max":0,"o":"m 307 707 b 268 781 307 739 290 767 l 186 781 b 169 831 174 792 169 808 b 329 1042 169 918 240 989 b 65 778 201 1042 65 925 b 201 611 65 681 119 611 b 307 707 261 611 307 654 z "},"’":{"ha":378,"x_min":0,"x_max":0,"o":"m 71 928 b 110 854 71 896 88 868 l 192 854 b 208 804 204 843 208 826 b 49 593 208 717 138 646 b 313 857 176 593 313 710 b 176 1024 313 954 258 1024 b 71 928 117 1024 71 981 z "},"“":{"ha":681,"x_min":0,"x_max":0,"o":"m 608 707 b 569 781 608 739 592 767 l 488 781 b 471 831 475 792 471 808 b 631 1042 471 918 542 989 b 367 778 503 1042 367 925 b 503 611 367 681 421 611 b 608 707 563 611 608 654 z m 307 707 b 268 781 307 739 290 767 l 186 781 b 169 831 174 792 169 808 b 329 1042 169 918 240 989 b 65 778 201 1042 65 925 b 201 611 65 681 119 611 b 307 707 261 611 307 654 z "},"”":{"ha":681,"x_min":0,"x_max":0,"o":"m 374 928 b 413 854 374 896 390 868 l 494 854 b 511 804 507 843 511 826 b 351 593 511 717 440 646 b 615 857 479 593 615 710 b 479 1024 615 954 561 1024 b 374 928 419 1024 374 981 z m 71 928 b 110 854 71 896 88 868 l 192 854 b 208 804 204 843 208 826 b 49 593 208 717 138 646 b 313 857 176 593 313 710 b 176 1024 313 954 258 1024 b 71 928 117 1024 71 981 z "},"‚":{"ha":378,"x_min":0,"x_max":0,"o":"m 71 117 b 110 43 71 85 88 57 l 192 43 b 208 -7 204 32 208 15 b 49 -218 208 -94 138 -165 b 313 46 176 -218 313 -101 b 176 213 313 143 258 213 b 71 117 117 213 71 169 z "},"„":{"ha":681,"x_min":0,"x_max":0,"o":"m 374 117 b 413 43 374 85 390 57 l 494 43 b 511 -7 507 32 511 15 b 351 -218 511 -94 440 -165 b 615 46 479 -218 615 -101 b 479 213 615 143 561 213 b 374 117 419 213 374 169 z m 71 117 b 110 43 71 85 88 57 l 192 43 b 208 -7 204 32 208 15 b 49 -218 208 -94 138 -165 b 313 46 176 -218 313 -101 b 176 213 313 143 258 213 b 71 117 117 213 71 169 z "},"‹":{"ha":446,"x_min":0,"x_max":0,"o":"m 64 318 l 382 25 l 246 318 l 382 607 z "},"›":{"ha":446,"x_min":0,"x_max":0,"o":"m 382 318 l 64 607 l 200 318 l 64 25 z "},"«":{"ha":721,"x_min":0,"x_max":0,"o":"m 339 318 l 657 25 l 521 318 l 657 607 z m 64 318 l 382 25 l 246 318 l 382 607 z "},"»":{"ha":721,"x_min":0,"x_max":0,"o":"m 382 318 l 64 607 l 200 318 l 64 25 z m 657 318 l 339 607 l 475 318 l 339 25 z "},"/":{"ha":661,"x_min":0,"x_max":0,"o":"m 529 1069 l 56 -201 l 132 -201 l 606 1069 z "},"\\":{"ha":661,"x_min":0,"x_max":0,"o":"m 132 1069 l 56 1069 l 529 -201 l 606 -201 z "},"|":{"ha":463,"x_min":0,"x_max":0,"o":"m 268 1069 l 194 1069 l 194 -201 l 268 -201 z "},"·":{"ha":397,"x_min":0,"x_max":0,"o":"m 313 349 b 197 465 313 413 265 465 b 85 349 133 465 85 413 b 197 238 85 288 133 238 b 313 349 265 238 313 288 z "},"•":{"ha":586,"x_min":0,"x_max":0,"o":"m 293 564 b 82 353 178 564 82 469 b 293 142 82 236 178 142 b 504 353 410 142 504 236 b 293 564 504 469 410 564 z "},"-":{"ha":553,"x_min":0,"x_max":0,"o":"m 469 407 l 117 407 l 83 301 l 436 301 z "},"–":{"ha":874,"x_min":0,"x_max":0,"o":"m 115 392 l 82 304 l 758 304 l 792 392 z "},"—":{"ha":1415,"x_min":0,"x_max":0,"o":"m 115 392 l 82 304 l 1300 304 l 1333 392 z "},"(":{"ha":563,"x_min":0,"x_max":0,"o":"m 114 396 b 494 -246 114 121 283 -100 b 288 396 371 -61 288 143 b 494 1038 288 649 371 853 b 114 396 283 892 114 671 z "},")":{"ha":563,"x_min":0,"x_max":0,"o":"m 449 396 b 68 1038 449 671 279 892 b 275 396 192 853 275 649 b 68 -246 275 143 192 -61 b 449 396 279 -100 449 121 z "},"[":{"ha":604,"x_min":0,"x_max":0,"o":"m 165 -229 l 517 -229 l 517 -164 l 300 -164 l 300 963 l 517 963 l 517 1028 l 165 1028 z "},"]":{"ha":604,"x_min":0,"x_max":0,"o":"m 439 -229 l 439 1028 l 88 1028 l 88 963 l 304 963 l 304 -164 l 88 -164 l 88 -229 z "},"{":{"ha":600,"x_min":0,"x_max":0,"o":"m 42 397 b 281 253 143 378 281 344 b 169 -51 281 154 169 47 b 382 -233 169 -149 250 -233 b 546 -194 443 -233 511 -214 b 335 -44 419 -187 335 -144 b 382 240 335 29 382 156 b 175 397 382 340 253 383 b 382 554 253 411 382 454 b 335 839 382 639 335 765 b 546 989 335 939 419 982 b 382 1028 511 1008 443 1028 b 169 846 250 1028 169 943 b 281 542 169 747 281 640 b 42 397 281 450 143 417 z "},"}":{"ha":600,"x_min":0,"x_max":0,"o":"m 558 397 b 319 542 457 417 319 450 b 431 846 319 640 431 747 b 218 1028 431 943 350 1028 b 54 989 157 1028 89 1008 b 265 839 181 982 265 939 b 218 554 265 765 218 639 b 425 397 218 454 347 411 b 218 240 347 383 218 340 b 265 -44 218 156 265 29 b 54 -194 265 -144 181 -187 b 218 -233 89 -214 157 -233 b 431 -51 350 -233 431 -149 b 319 253 431 47 319 154 b 558 397 319 344 457 378 z "},"*":{"ha":653,"x_min":0,"x_max":0,"o":"m 582 668 l 415 815 l 582 961 l 371 890 l 326 1110 l 282 890 l 71 961 l 238 815 l 71 668 l 282 739 l 326 519 l 371 739 z "},"†":{"ha":664,"x_min":0,"x_max":0,"o":"m 550 896 l 369 896 l 369 1069 l 296 1069 l 296 896 l 115 896 l 115 822 l 296 822 l 296 456 l 369 456 l 369 822 l 550 822 z "},"‡":{"ha":664,"x_min":0,"x_max":0,"o":"m 550 693 l 369 693 l 369 832 l 550 832 l 550 906 l 369 906 l 369 1069 l 296 1069 l 296 906 l 115 906 l 115 832 l 296 832 l 296 693 l 115 693 l 115 619 l 296 619 l 296 456 l 369 456 l 369 619 l 550 619 z "},"§":{"ha":722,"x_min":0,"x_max":0,"o":"m 317 -222 b 247 -210 294 -222 269 -221 l 247 -65 b 122 -160 185 -65 122 -93 b 299 -281 122 -235 201 -281 b 607 60 492 -281 607 -114 b 536 301 607 144 581 213 l 258 850 b 404 914 296 889 344 914 b 474 901 426 914 451 913 l 474 757 b 599 851 538 757 599 785 b 424 972 599 926 519 972 b 115 632 231 972 115 806 b 186 390 115 547 142 479 l 464 -158 b 317 -222 426 -197 376 -222 z m 232 447 b 179 643 199 515 179 574 b 219 797 179 696 193 751 l 490 244 b 542 49 524 176 542 118 b 503 -104 542 -4 528 -58 z "},"¶":{"ha":875,"x_min":0,"x_max":0,"o":"m 454 958 b 103 656 271 958 103 835 b 454 353 103 476 271 353 l 454 892 l 556 892 l 556 -24 b 375 -225 556 -160 483 -225 b 218 -75 283 -225 218 -161 b 340 54 218 1 275 54 l 340 -68 b 458 19 396 -68 458 -46 b 340 114 458 74 415 114 b 153 -78 239 114 153 31 b 375 -286 153 -201 258 -286 b 626 -26 521 -286 626 -174 l 626 892 l 807 892 l 807 958 z "},"^":{"ha":575,"x_min":0,"x_max":0,"o":"m 288 775 l 528 481 l 344 919 b 288 963 333 946 314 963 b 231 919 261 963 242 946 l 47 481 z "},"~":{"ha":689,"x_min":0,"x_max":0,"o":"m 497 300 l 607 525 b 435 422 538 468 479 422 b 193 457 399 422 222 450 l 82 232 b 256 335 153 289 211 335 b 497 300 290 335 467 307 z "},"_":{"ha":668,"x_min":0,"x_max":0,"o":"m 586 -89 l 119 -89 l 86 -185 l 551 -185 z "},"'":{"ha":294,"x_min":0,"x_max":0,"o":"m 147 539 l 236 956 b 147 1047 236 1000 206 1047 b 60 956 89 1047 60 1000 z "},"\"":{"ha":546,"x_min":0,"x_max":0,"o":"m 399 539 l 488 956 b 399 1047 488 1000 457 1047 b 311 956 340 1047 311 1000 z m 147 539 l 236 956 b 147 1047 236 1000 206 1047 b 60 956 89 1047 60 1000 z "},"@":{"ha":1293,"x_min":0,"x_max":0,"o":"m 872 57 l 872 453 b 719 619 872 558 807 619 b 401 399 592 619 446 521 l 564 399 l 564 533 b 721 419 686 558 721 497 l 721 354 l 578 297 b 407 125 488 263 407 213 b 539 1 407 50 469 1 b 703 89 614 1 669 51 l 722 89 b 883 1 747 42 797 1 b 1225 403 1053 1 1225 164 b 711 879 1225 644 1036 879 b 68 244 332 879 68 568 b 668 -319 68 -146 390 -319 b 1139 -136 858 -319 1028 -246 b 725 -236 1014 -203 864 -236 b 190 268 465 -236 190 -72 b 707 814 190 558 393 814 b 1107 414 985 814 1107 601 b 872 57 1107 215 1015 71 z m 721 307 l 721 133 b 633 97 696 111 667 97 b 556 169 589 97 556 122 b 664 283 556 226 593 253 z "},"©":{"ha":1140,"x_min":0,"x_max":0,"o":"m 83 479 b 571 -14 83 210 303 -14 b 1057 479 838 -14 1057 210 b 571 972 1057 749 838 972 b 83 479 303 972 83 749 z m 139 479 b 571 918 139 719 333 918 b 1001 479 807 918 1001 719 b 571 39 1001 238 807 39 b 139 479 333 39 139 238 z m 813 360 b 640 288 763 314 706 288 b 424 521 529 288 424 372 b 592 728 424 647 500 728 b 792 551 681 728 739 638 l 792 776 l 721 740 b 589 776 686 760 647 776 b 290 469 440 776 290 653 b 572 190 290 294 429 190 b 813 360 692 190 778 268 z "},"®":{"ha":731,"x_min":0,"x_max":0,"o":"m 78 683 b 367 399 78 528 197 399 b 653 683 532 399 653 528 b 367 972 653 843 532 972 b 78 683 197 972 78 843 z m 124 683 b 367 928 124 819 224 928 b 608 683 507 928 608 819 b 367 443 608 551 507 443 b 124 683 224 443 124 551 z m 365 578 l 324 578 l 324 678 l 346 678 l 444 547 l 524 547 l 414 685 b 486 758 454 694 486 719 b 365 838 486 813 436 838 l 218 838 l 218 807 l 257 807 l 257 578 l 218 578 l 218 547 l 365 547 z m 324 807 l 351 807 b 418 756 388 807 418 792 b 353 703 418 718 390 703 l 324 703 z "},"™":{"ha":1261,"x_min":0,"x_max":0,"o":"m 122 958 l 89 976 l 89 794 l 175 914 l 251 914 l 251 574 l 167 574 l 167 526 l 440 526 l 440 574 l 354 574 l 354 914 l 432 914 l 517 794 l 517 976 l 483 958 z m 1017 574 l 946 574 l 946 526 l 1176 526 l 1176 574 l 1121 574 l 1089 910 l 1146 910 l 1146 958 l 954 958 l 871 711 l 789 958 l 592 958 l 592 910 l 649 910 l 617 574 l 561 574 l 561 526 l 738 526 l 738 574 l 667 574 l 697 904 l 842 500 l 986 904 z "},"#":{"ha":926,"x_min":0,"x_max":0,"o":"m 113 0 l 181 0 l 279 279 l 507 279 l 408 0 l 476 0 l 575 279 l 774 279 l 774 343 l 597 343 l 693 615 l 857 615 l 857 679 l 715 679 l 814 958 l 746 958 l 647 679 l 419 679 l 518 958 l 450 958 l 351 679 l 153 679 l 153 615 l 329 615 l 233 343 l 69 343 l 69 279 l 211 279 z m 301 343 l 397 615 l 625 615 l 529 343 z "},"°":{"ha":449,"x_min":0,"x_max":0,"o":"m 225 578 b 421 775 333 578 421 667 b 225 972 421 883 333 972 b 28 775 117 972 28 883 b 225 578 28 667 117 578 z m 225 650 b 100 775 156 650 100 706 b 225 900 100 844 156 900 b 349 775 294 900 349 843 b 225 650 349 707 294 650 z "},"ƒ":{"ha":832,"x_min":0,"x_max":0,"o":"m 319 110 l 404 369 l 574 369 l 590 431 l 425 431 l 581 907 l 742 772 b 822 876 788 789 822 835 b 697 972 822 931 775 972 b 265 492 507 972 343 813 l 251 431 l 99 431 l 83 369 l 236 369 l 81 -283 l -133 -236 b -154 -311 -143 -256 -154 -282 b -69 -403 -154 -364 -126 -403 b 319 110 86 -403 214 -224 z "},"€":{"ha":899,"x_min":0,"x_max":0,"o":"m 29 382 l 144 382 b 538 -14 175 135 350 -14 b 864 243 707 -14 821 97 b 607 122 794 167 714 122 b 319 382 476 122 361 217 l 544 382 l 564 443 l 308 443 b 304 519 306 467 304 493 b 306 553 304 531 304 542 l 589 553 l 607 614 l 311 614 b 556 901 338 789 439 901 b 842 635 672 901 764 771 l 842 972 l 747 904 b 553 972 700 940 639 972 b 160 614 383 972 214 835 l 29 614 l 29 553 l 147 553 b 140 457 143 522 140 490 b 140 443 140 451 140 447 l 29 443 z "},"$":{"ha":786,"x_min":0,"x_max":0,"o":"m 411 1125 l 399 965 b 382 965 393 965 388 965 b 88 689 217 965 88 844 b 357 424 88 524 228 474 l 329 67 b 65 346 224 93 133 196 l 65 96 b 324 -6 124 43 222 3 l 310 -175 l 369 -175 l 382 -7 b 717 296 569 3 717 124 b 428 575 717 468 563 522 l 451 883 b 681 639 540 849 614 751 l 681 967 l 578 896 b 457 956 550 921 507 943 l 469 1125 z m 381 897 b 393 897 385 897 389 897 l 369 597 b 228 750 290 632 228 674 b 381 897 228 839 292 897 z m 564 226 b 388 60 564 118 483 61 l 414 400 b 564 226 497 364 564 318 z "},"¢":{"ha":642,"x_min":0,"x_max":0,"o":"m 488 429 b 592 524 543 429 592 471 b 408 644 592 590 517 642 l 422 818 l 365 818 l 350 642 b 38 296 178 618 38 478 b 296 -11 38 131 149 10 l 282 -175 l 339 -175 l 353 -14 b 599 211 483 -8 582 83 b 406 113 557 154 486 113 b 364 115 390 113 376 114 l 403 588 z m 181 350 b 346 589 181 467 251 560 l 308 132 b 181 350 231 165 181 243 z "},"£":{"ha":875,"x_min":0,"x_max":0,"o":"m 131 0 b 265 125 185 0 228 42 l 594 -47 b 833 201 713 -26 833 89 b 739 308 833 264 793 308 b 646 242 699 308 658 283 l 761 129 l 749 114 l 283 171 l 394 454 l 576 454 l 592 515 l 419 515 l 578 919 l 738 756 b 817 867 783 775 817 815 b 660 972 817 922 763 972 b 286 607 463 972 321 842 l 271 515 l 139 515 l 125 454 l 260 454 l 210 168 l 38 133 b 131 0 22 53 72 0 z "},"¥":{"ha":982,"x_min":0,"x_max":0,"o":"m 164 308 l 406 308 l 406 67 l 246 67 l 246 0 l 731 0 l 731 67 l 572 67 l 572 308 l 819 308 l 819 369 l 572 369 l 572 478 l 819 478 l 819 539 l 613 539 l 857 892 l 968 892 l 968 958 l 618 958 l 618 892 l 772 892 l 540 550 l 326 892 l 479 892 l 479 958 l 14 958 l 14 892 l 124 892 l 365 539 l 164 539 l 164 478 l 406 478 l 406 369 l 164 369 z "},"฿":{"ha":931,"x_min":0,"x_max":0,"o":"m 38 958 l 38 892 l 176 892 l 176 67 l 38 67 l 38 0 l 464 0 l 464 -175 l 522 -175 l 522 1 b 885 272 744 13 885 122 b 574 510 885 429 706 501 b 829 728 706 529 829 611 b 522 956 829 868 711 943 l 522 1125 l 464 1125 l 464 958 b 457 958 461 958 460 958 z m 436 892 b 464 890 446 892 454 892 l 464 526 b 436 525 454 525 446 525 l 339 525 l 339 892 z m 660 713 b 522 538 660 622 600 563 l 522 882 b 660 713 604 863 660 808 z m 339 67 l 339 464 l 454 464 b 464 464 461 464 457 464 l 464 67 z m 704 271 b 522 71 704 156 628 89 l 522 458 b 704 271 622 443 704 388 z "},"₫":{"ha":838,"x_min":0,"x_max":0,"o":"m 685 204 l 685 788 l 793 788 l 793 847 l 685 847 l 685 1021 l 529 972 l 529 847 l 301 847 l 301 788 l 529 788 l 529 660 b 403 685 490 676 444 685 b 63 347 229 685 63 549 b 319 60 63 186 168 60 b 506 140 397 60 460 99 l 529 140 l 529 51 l 793 129 z m 529 192 b 438 154 515 172 478 154 b 218 397 313 154 218 242 b 403 626 218 550 301 626 b 529 556 464 626 513 594 z m 103 -139 l 768 -139 l 768 -78 l 103 -78 z "},"₣":{"ha":878,"x_min":0,"x_max":0,"o":"m 74 357 l 211 357 l 211 67 l 74 67 l 74 0 l 554 0 l 554 67 l 378 67 l 378 357 l 629 357 l 649 418 l 378 418 l 378 528 l 674 528 l 692 589 l 378 589 l 378 892 l 664 892 l 832 678 l 832 999 l 757 958 l 74 958 l 74 892 l 211 892 l 211 589 l 74 589 l 74 528 l 211 528 l 211 418 l 74 418 z "},"₦":{"ha":1131,"x_min":0,"x_max":0,"o":"m 75 361 l 214 361 l 214 67 l 75 67 l 75 0 l 442 0 l 442 67 l 293 67 l 293 708 l 918 -44 l 918 361 l 1056 361 l 1056 421 l 918 421 l 918 532 l 1056 532 l 1056 592 l 918 592 l 918 892 l 1056 892 l 1056 958 l 689 958 l 689 892 l 838 892 l 838 281 l 296 958 l 85 958 l 214 803 l 214 592 l 75 592 l 75 532 l 214 532 l 214 421 l 75 421 z "},"₧":{"ha":1044,"x_min":0,"x_max":0,"o":"m 74 636 l 211 636 l 211 67 l 74 67 l 74 0 l 557 0 l 557 67 l 372 67 l 372 636 l 717 636 b 449 432 703 517 608 438 l 560 385 b 879 636 700 386 863 476 l 1014 636 l 1014 696 l 879 696 b 474 958 863 878 697 958 l 74 958 l 74 892 l 211 892 l 211 696 l 74 696 z m 372 892 l 468 892 b 717 696 601 892 704 829 l 372 696 z "},"₱":{"ha":1039,"x_min":0,"x_max":0,"o":"m 74 550 l 211 550 l 211 67 l 74 67 l 74 0 l 557 0 l 557 67 l 372 67 l 372 550 l 689 550 b 449 432 647 479 567 436 l 560 385 b 853 550 672 386 799 444 l 1006 550 l 1006 610 l 875 610 b 881 664 879 626 881 644 b 875 721 881 683 879 703 l 1006 721 l 1006 781 l 858 781 b 474 958 804 903 658 958 l 74 958 l 74 892 l 211 892 l 211 781 l 74 781 l 74 721 l 211 721 l 211 610 l 74 610 z m 372 892 l 468 892 b 693 781 569 892 653 856 l 372 781 z m 718 668 b 711 610 718 647 715 628 l 372 610 l 372 721 l 714 721 b 718 668 717 704 718 688 z "},"₽":{"ha":925,"x_min":0,"x_max":0,"o":"m 74 286 l 211 286 l 211 67 l 74 67 l 74 0 l 557 0 l 557 67 l 372 67 l 372 286 l 697 286 l 697 347 l 372 347 l 372 457 l 478 457 b 874 714 686 457 874 535 b 478 958 874 890 703 958 l 74 958 l 74 892 l 211 892 l 211 518 l 74 518 l 74 457 l 211 457 l 211 347 l 74 347 z m 372 892 l 460 892 b 699 708 593 892 699 843 b 460 518 699 572 593 518 l 372 518 z "},"₹":{"ha":857,"x_min":0,"x_max":0,"o":"m 90 504 l 90 443 l 219 443 l 582 0 l 793 0 l 407 461 b 654 704 546 496 654 575 b 653 726 654 711 654 719 l 792 726 l 817 788 l 633 788 b 503 897 607 836 560 874 l 792 897 l 817 958 l 64 958 l 64 897 l 231 897 b 456 788 331 897 419 863 l 64 788 l 64 726 l 474 726 b 475 701 475 718 475 710 b 231 504 475 565 364 504 z "},"₺":{"ha":943,"x_min":0,"x_max":0,"o":"m 74 251 l 211 332 l 211 67 l 74 67 l 74 0 l 438 0 b 885 401 731 0 885 154 l 711 401 b 421 67 711 160 617 67 l 372 67 l 372 417 l 596 549 l 596 614 l 372 482 l 372 600 l 596 732 l 596 797 l 372 665 l 372 892 l 511 892 l 511 958 l 74 958 l 74 892 l 211 892 l 211 581 l 74 500 l 74 435 l 211 515 l 211 397 l 74 317 z "},"₩":{"ha":1318,"x_min":0,"x_max":0,"o":"m 64 576 l 231 576 l 451 -51 l 681 533 l 871 -51 l 1089 576 l 1250 576 l 1250 636 l 1110 636 l 1199 892 l 1296 892 l 1296 958 l 981 958 l 981 892 l 1128 892 l 1042 636 l 796 636 l 715 892 l 853 892 l 853 958 l 481 958 l 481 892 l 564 892 l 647 636 l 368 636 l 281 892 l 389 892 l 389 958 l 22 958 l 22 892 l 119 892 l 210 636 l 64 636 z m 501 246 l 389 576 l 628 576 z m 914 258 l 814 576 l 1021 576 z "},"⁰":{"ha":565,"x_min":0,"x_max":0,"o":"m 521 688 b 283 967 521 842 406 967 b 44 688 161 967 44 842 b 283 408 44 533 161 408 b 521 688 406 408 521 533 z m 388 688 b 283 449 388 547 339 449 b 179 688 228 449 179 547 b 283 925 179 828 228 925 b 388 688 339 925 388 828 z "},"¹":{"ha":454,"x_min":0,"x_max":0,"o":"m 174 817 l 174 465 l 65 465 l 65 415 l 407 415 l 407 465 l 303 465 l 303 967 l 24 817 z "},"²":{"ha":465,"x_min":0,"x_max":0,"o":"m 383 415 l 447 526 l 181 526 l 181 539 b 392 817 289 622 392 713 b 240 967 392 900 333 967 b 39 792 149 967 72 906 b 171 863 79 836 117 863 b 275 756 236 863 275 821 b 14 415 275 663 189 588 z "},"³":{"ha":446,"x_min":0,"x_max":0,"o":"m 179 442 l 89 539 b 35 476 54 529 35 503 b 138 408 35 436 76 408 b 407 599 268 408 407 494 b 242 726 407 678 332 715 l 242 736 b 372 864 317 758 372 801 b 249 967 372 918 329 967 b 51 822 147 967 82 896 b 163 876 81 853 119 876 b 240 808 207 876 240 851 b 100 665 240 753 193 713 b 292 550 218 665 292 624 b 179 442 292 488 231 451 z "},"⁴":{"ha":544,"x_min":0,"x_max":0,"o":"m 454 415 l 454 465 l 381 465 l 381 569 l 482 569 l 531 624 l 381 624 l 381 967 l 8 569 l 261 569 l 261 465 l 186 465 l 186 415 z m 261 624 l 114 624 l 261 782 z "},"⁵":{"ha":447,"x_min":0,"x_max":0,"o":"m 147 772 l 165 843 l 363 843 l 403 958 l 163 958 l 83 671 b 289 558 206 686 289 644 b 181 443 289 486 231 453 l 88 540 b 33 476 53 531 33 506 b 138 408 33 438 75 408 b 399 619 267 408 399 496 b 147 772 399 739 282 782 z "},"⁶":{"ha":496,"x_min":0,"x_max":0,"o":"m 257 408 b 451 596 364 408 451 496 b 293 753 451 686 385 753 b 194 714 250 753 218 736 l 183 714 b 449 967 217 817 306 899 b 43 635 226 960 43 810 b 257 408 43 513 135 408 z m 168 615 b 176 692 168 642 171 667 b 218 700 189 697 203 700 b 340 550 289 700 340 633 b 268 449 340 486 314 449 b 168 615 210 449 168 519 z "},"⁷":{"ha":478,"x_min":0,"x_max":0,"o":"m 197 417 l 457 958 l 92 958 l 22 838 l 354 838 l 114 417 z "},"⁸":{"ha":483,"x_min":0,"x_max":0,"o":"m 443 571 b 318 719 443 643 383 685 l 318 735 b 419 838 379 753 419 788 b 243 967 419 911 343 967 b 60 810 138 967 60 889 b 157 679 60 749 104 711 l 157 664 b 40 542 86 635 40 599 b 236 408 40 469 128 408 b 443 571 350 408 443 492 z m 161 851 b 243 929 161 896 194 929 b 333 836 299 929 333 893 b 288 736 333 793 321 764 b 161 851 222 769 161 800 z m 133 557 b 186 663 133 603 149 633 b 332 533 257 625 332 593 b 236 447 332 486 294 447 b 133 557 176 447 133 492 z "},"⁹":{"ha":496,"x_min":0,"x_max":0,"o":"m 239 967 b 44 779 133 967 44 879 b 204 621 44 689 114 621 b 303 661 247 621 279 638 l 313 661 b 46 408 279 558 190 476 b 453 740 271 415 453 564 b 239 967 453 863 363 967 z m 154 825 b 228 926 154 889 183 926 b 328 761 286 926 328 857 b 318 683 328 733 325 707 b 279 675 307 678 294 675 b 154 825 208 675 154 742 z "},"₀":{"ha":565,"x_min":0,"x_max":0,"o":"m 521 63 b 283 342 521 217 406 342 b 44 63 161 342 44 217 b 283 -217 44 -92 161 -217 b 521 63 406 -217 521 -92 z m 388 63 b 283 -176 388 -78 339 -176 b 179 63 228 -176 179 -78 b 283 300 179 203 228 300 b 388 63 339 300 388 203 z "},"₁":{"ha":454,"x_min":0,"x_max":0,"o":"m 174 192 l 174 -160 l 65 -160 l 65 -210 l 407 -210 l 407 -160 l 303 -160 l 303 342 l 24 192 z "},"₂":{"ha":465,"x_min":0,"x_max":0,"o":"m 383 -210 l 447 -99 l 181 -99 l 181 -86 b 392 192 289 -3 392 88 b 240 342 392 275 333 342 b 39 167 149 342 72 281 b 171 238 79 211 117 238 b 275 131 236 238 275 196 b 14 -210 275 38 189 -37 z "},"₃":{"ha":446,"x_min":0,"x_max":0,"o":"m 179 -183 l 89 -86 b 35 -149 54 -96 35 -122 b 138 -217 35 -189 76 -217 b 407 -26 268 -217 407 -131 b 242 101 407 53 332 90 l 242 111 b 372 239 317 133 372 176 b 249 342 372 293 329 342 b 51 197 147 342 82 271 b 163 251 81 228 119 251 b 240 183 207 251 240 226 b 100 40 240 128 193 88 b 292 -75 218 40 292 -1 b 179 -183 292 -137 231 -174 z "},"₄":{"ha":544,"x_min":0,"x_max":0,"o":"m 454 -210 l 454 -160 l 381 -160 l 381 -56 l 482 -56 l 531 -1 l 381 -1 l 381 342 l 8 -56 l 261 -56 l 261 -160 l 186 -160 l 186 -210 z m 261 -1 l 114 -1 l 261 157 z "},"₅":{"ha":447,"x_min":0,"x_max":0,"o":"m 147 147 l 165 218 l 363 218 l 403 333 l 163 333 l 83 46 b 289 -67 206 61 289 19 b 181 -182 289 -139 231 -172 l 88 -85 b 33 -149 53 -94 33 -119 b 138 -217 33 -187 75 -217 b 399 -6 267 -217 399 -129 b 147 147 399 114 282 157 z "},"₆":{"ha":496,"x_min":0,"x_max":0,"o":"m 257 -217 b 451 -29 364 -217 451 -129 b 293 128 451 61 385 128 b 194 89 250 128 218 111 l 183 89 b 449 342 217 192 306 274 b 43 10 226 335 43 185 b 257 -217 43 -112 135 -217 z m 168 -10 b 176 67 168 17 171 42 b 218 75 189 72 203 75 b 340 -75 289 75 340 8 b 268 -176 340 -139 314 -176 b 168 -10 210 -176 168 -106 z "},"₇":{"ha":478,"x_min":0,"x_max":0,"o":"m 197 -208 l 457 333 l 92 333 l 22 213 l 354 213 l 114 -208 z "},"₈":{"ha":483,"x_min":0,"x_max":0,"o":"m 443 -54 b 318 94 443 18 383 60 l 318 110 b 419 213 379 128 419 163 b 243 342 419 286 343 342 b 60 185 138 342 60 264 b 157 54 60 124 104 86 l 157 39 b 40 -83 86 10 40 -26 b 236 -217 40 -156 128 -217 b 443 -54 350 -217 443 -133 z m 161 226 b 243 304 161 271 194 304 b 333 211 299 304 333 268 b 288 111 333 168 321 139 b 161 226 222 144 161 175 z m 133 -68 b 186 38 133 -22 149 8 b 332 -92 257 0 332 -32 b 236 -178 332 -139 294 -178 b 133 -68 176 -178 133 -133 z "},"₉":{"ha":496,"x_min":0,"x_max":0,"o":"m 239 342 b 44 154 133 342 44 254 b 204 -4 44 64 114 -4 b 303 36 247 -4 279 13 l 313 36 b 46 -217 279 -67 190 -149 b 453 115 271 -210 453 -61 b 239 342 453 238 363 342 z m 154 200 b 228 301 154 264 183 301 b 328 136 286 301 328 232 b 318 58 328 108 325 82 b 279 50 307 53 294 50 b 154 200 208 50 154 117 z "},"⁄":{"ha":235,"x_min":0,"x_max":0,"o":"m 500 958 l 399 958 l 372 893 l -265 0 l -164 0 l -137 65 z "},"½":{"ha":1115,"x_min":0,"x_max":0,"o":"m 174 817 l 174 465 l 65 465 l 65 415 l 407 415 l 407 465 l 303 465 l 303 967 l 24 817 z m 957 958 l 856 958 l 829 893 l 192 0 l 293 0 l 319 65 z m 1033 0 l 1097 111 l 831 111 l 831 124 b 1042 401 939 207 1042 297 b 890 551 1042 485 983 551 b 689 376 799 551 722 490 b 821 447 729 421 767 447 b 925 340 886 447 925 406 b 664 0 925 247 839 172 z "},"¼":{"ha":1078,"x_min":0,"x_max":0,"o":"m 957 958 l 856 958 l 829 893 l 192 0 l 293 0 l 319 65 z m 174 817 l 174 465 l 65 465 l 65 415 l 407 415 l 407 465 l 303 465 l 303 967 l 24 817 z m 988 0 l 988 50 l 914 50 l 914 154 l 1015 154 l 1064 208 l 914 208 l 914 551 l 542 154 l 794 154 l 794 50 l 719 50 l 719 0 z m 794 208 l 647 208 l 794 367 z "},"¾":{"ha":1029,"x_min":0,"x_max":0,"o":"m 939 0 l 939 50 l 865 50 l 865 154 l 967 154 l 1015 208 l 865 208 l 865 551 l 493 154 l 746 154 l 746 50 l 671 50 l 671 0 z m 746 208 l 599 208 l 746 367 z m 910 958 l 808 958 l 782 893 l 144 0 l 246 0 l 272 65 z m 179 442 l 89 539 b 35 476 54 529 35 503 b 138 408 35 436 76 408 b 407 599 268 408 407 494 b 242 726 407 678 332 715 l 242 736 b 372 864 317 758 372 801 b 249 967 372 918 329 967 b 51 822 147 967 82 896 b 163 876 81 853 119 876 b 240 808 207 876 240 851 b 100 665 240 753 193 713 b 292 550 218 665 292 624 b 179 442 292 488 231 451 z "},"⅓":{"ha":1085,"x_min":0,"x_max":0,"o":"m 957 958 l 856 958 l 829 893 l 192 0 l 293 0 l 319 65 z m 174 817 l 174 465 l 65 465 l 65 415 l 407 415 l 407 465 l 303 465 l 303 967 l 24 817 z m 818 26 l 728 124 b 674 61 693 114 674 88 b 776 -7 674 21 715 -7 b 1046 183 907 -7 1046 79 b 881 311 1046 263 971 300 l 881 321 b 1011 449 956 343 1011 386 b 888 551 1011 503 968 551 b 690 407 786 551 721 481 b 801 461 719 438 758 461 b 879 393 846 461 879 436 b 739 250 879 338 832 297 b 931 135 857 250 931 208 b 818 26 931 72 869 36 z "},"⅔":{"ha":1101,"x_min":0,"x_max":0,"o":"m 974 958 l 872 958 l 846 893 l 208 0 l 310 0 l 336 65 z m 835 26 l 744 124 b 690 61 710 114 690 88 b 793 -7 690 21 732 -7 b 1063 183 924 -7 1063 79 b 897 311 1063 263 988 300 l 897 321 b 1028 449 972 343 1028 386 b 904 551 1028 503 985 551 b 707 407 803 551 738 481 b 818 461 736 438 775 461 b 896 393 863 461 896 436 b 756 250 896 338 849 297 b 947 135 874 250 947 208 b 835 26 947 72 886 36 z m 383 415 l 447 526 l 181 526 l 181 539 b 392 817 289 622 392 713 b 240 967 392 900 333 967 b 39 792 149 967 72 906 b 171 863 79 836 117 863 b 275 756 236 863 275 821 b 14 415 275 663 189 588 z "},"⅛":{"ha":1122,"x_min":0,"x_max":0,"o":"m 1082 156 b 957 304 1082 228 1022 269 l 957 319 b 1058 422 1018 338 1058 372 b 882 551 1058 496 982 551 b 699 394 776 551 699 474 b 796 264 699 333 743 296 l 796 249 b 679 126 725 219 679 183 b 875 -7 679 54 767 -7 b 1082 156 989 -7 1082 76 z m 800 436 b 882 514 800 481 833 514 b 972 421 938 514 972 478 b 926 321 972 378 960 349 b 800 436 861 354 800 385 z m 772 142 b 825 247 772 188 788 218 b 971 118 896 210 971 178 b 875 32 971 71 933 32 b 772 142 815 32 772 76 z m 957 958 l 856 958 l 829 893 l 192 0 l 293 0 l 319 65 z m 174 817 l 174 465 l 65 465 l 65 415 l 407 415 l 407 465 l 303 465 l 303 967 l 24 817 z "},"⅜":{"ha":1075,"x_min":0,"x_max":0,"o":"m 1035 156 b 910 304 1035 228 975 269 l 910 319 b 1011 422 971 338 1011 372 b 835 551 1011 496 935 551 b 651 394 729 551 651 474 b 749 264 651 333 696 296 l 749 249 b 632 126 678 219 632 183 b 828 -7 632 54 719 -7 b 1035 156 942 -7 1035 76 z m 753 436 b 835 514 753 481 786 514 b 925 421 890 514 925 478 b 879 321 925 378 913 349 b 753 436 814 354 753 385 z m 725 142 b 778 247 725 188 740 218 b 924 118 849 210 924 178 b 828 32 924 71 886 32 b 725 142 768 32 725 76 z m 910 958 l 808 958 l 782 893 l 144 0 l 246 0 l 272 65 z m 179 442 l 89 539 b 35 476 54 529 35 503 b 138 408 35 436 76 408 b 407 599 268 408 407 494 b 242 726 407 678 332 715 l 242 736 b 372 864 317 758 372 801 b 249 967 372 918 329 967 b 51 822 147 967 82 896 b 163 876 81 853 119 876 b 240 808 207 876 240 851 b 100 665 240 753 193 713 b 292 550 218 665 292 624 b 179 442 292 488 231 451 z "},"⅝":{"ha":1064,"x_min":0,"x_max":0,"o":"m 899 958 l 797 958 l 771 893 l 133 0 l 235 0 l 261 65 z m 1024 156 b 899 304 1024 228 964 269 l 899 319 b 1000 422 960 338 1000 372 b 824 551 1000 496 924 551 b 640 394 718 551 640 474 b 738 264 640 333 685 296 l 738 249 b 621 126 667 219 621 183 b 817 -7 621 54 708 -7 b 1024 156 931 -7 1024 76 z m 742 436 b 824 514 742 481 775 514 b 914 421 879 514 914 478 b 868 321 914 378 901 349 b 742 436 803 354 742 385 z m 714 142 b 767 247 714 188 729 218 b 913 118 838 210 913 178 b 817 32 913 71 875 32 b 714 142 757 32 714 76 z m 147 772 l 165 843 l 363 843 l 403 958 l 163 958 l 83 671 b 289 558 206 686 289 644 b 181 443 289 486 231 453 l 88 540 b 33 476 53 531 33 506 b 138 408 33 438 75 408 b 399 619 267 408 399 496 b 147 772 399 739 282 782 z "},"⅞":{"ha":1006,"x_min":0,"x_max":0,"o":"m 965 156 b 840 304 965 228 906 269 l 840 319 b 942 422 901 338 942 372 b 765 551 942 496 865 551 b 582 394 660 551 582 474 b 679 264 582 333 626 296 l 679 249 b 563 126 608 219 563 183 b 758 -7 563 54 650 -7 b 965 156 872 -7 965 76 z m 683 436 b 765 514 683 481 717 514 b 856 421 821 514 856 478 b 810 321 856 378 843 349 b 683 436 744 354 683 385 z m 656 142 b 708 247 656 188 671 218 b 854 118 779 210 854 178 b 758 32 854 71 817 32 b 656 142 699 32 656 76 z m 840 958 l 739 958 l 713 893 l 75 0 l 176 0 l 203 65 z m 197 417 l 457 958 l 92 958 l 22 838 l 354 838 l 114 417 z "},"%":{"ha":975,"x_min":0,"x_max":0,"o":"m 257 567 b 456 769 364 567 456 657 b 257 972 456 882 364 972 b 56 769 146 972 56 882 b 257 567 56 657 146 567 z m 885 958 l 774 958 l 749 893 l 90 0 l 200 0 l 226 65 z m 257 642 b 132 769 188 642 132 699 b 257 899 132 840 188 899 b 378 769 325 899 378 840 b 257 642 378 699 325 642 z m 721 392 b 521 189 611 392 521 301 b 721 -14 521 76 611 -14 b 919 189 829 -14 919 76 b 721 392 919 301 829 392 z m 721 318 b 843 189 789 318 843 260 b 721 61 843 118 789 61 b 597 189 651 61 597 118 b 721 318 597 260 651 318 z "},"+":{"ha":833,"x_min":0,"x_max":0,"o":"m 61 431 l 376 431 l 376 115 l 457 115 l 457 431 l 772 431 l 772 513 l 457 513 l 457 828 l 376 828 l 376 513 l 61 513 z "},"−":{"ha":833,"x_min":0,"x_max":0,"o":"m 61 431 l 772 431 l 772 513 l 61 513 z "},"×":{"ha":833,"x_min":0,"x_max":0,"o":"m 110 200 l 168 142 l 417 390 l 665 142 l 724 200 l 475 449 l 724 697 l 665 756 l 417 507 l 168 756 l 110 697 l 358 449 z "},"÷":{"ha":833,"x_min":0,"x_max":0,"o":"m 419 661 b 511 756 469 661 511 703 b 419 849 511 807 469 849 b 326 756 368 849 326 807 b 419 661 326 703 368 661 z m 61 431 l 772 431 l 772 513 l 61 513 z m 419 94 b 511 189 469 94 511 136 b 419 282 511 240 469 282 b 326 189 368 282 326 240 b 419 94 326 136 368 94 z "},"=":{"ha":833,"x_min":0,"x_max":0,"o":"m 61 574 l 772 574 l 772 654 l 61 654 z m 61 286 l 772 286 l 772 367 l 61 367 z "},"<":{"ha":832,"x_min":0,"x_max":0,"o":"m 106 433 l 726 122 l 726 218 l 206 468 l 726 721 l 726 815 l 106 507 z "},">":{"ha":832,"x_min":0,"x_max":0,"o":"m 726 433 l 726 507 l 106 815 l 106 721 l 626 468 l 106 218 l 106 122 z "},"↑":{"ha":925,"x_min":0,"x_max":0,"o":"m 497 724 l 842 554 l 463 1025 l 83 554 l 428 724 l 428 -28 l 497 -28 z "},"↓":{"ha":925,"x_min":0,"x_max":0,"o":"m 497 260 l 842 429 l 463 -42 l 83 429 l 428 260 l 428 1011 l 497 1011 z "},"←":{"ha":1219,"x_min":0,"x_max":0,"o":"m 385 364 l 554 19 l 83 399 l 554 778 l 385 433 l 1136 433 l 1136 364 z "},"→":{"ha":1219,"x_min":0,"x_max":0,"o":"m 835 364 l 665 19 l 1136 399 l 665 778 l 835 433 l 83 433 l 83 364 z "},"↕":{"ha":925,"x_min":0,"x_max":0,"o":"m 497 121 l 497 782 l 842 613 l 463 1083 l 83 613 l 428 782 l 428 121 l 83 290 l 463 -181 l 842 290 z "},"↔":{"ha":1611,"x_min":0,"x_max":0,"o":"m 385 364 l 1226 364 l 1057 19 l 1528 399 l 1057 778 l 1226 433 l 385 433 l 554 778 l 83 399 l 554 19 z "},"↖":{"ha":1153,"x_min":0,"x_max":0,"o":"m 269 738 l 1021 -14 l 1069 35 l 318 786 l 669 917 l 83 972 l 139 386 z "},"↗":{"ha":1153,"x_min":0,"x_max":0,"o":"m 883 738 l 132 -14 l 83 35 l 835 786 l 483 917 l 1069 972 l 1014 386 z "},"↘":{"ha":1153,"x_min":0,"x_max":0,"o":"m 883 221 l 132 972 l 83 924 l 835 172 l 483 42 l 1069 -14 l 1014 572 z "},"↙":{"ha":1153,"x_min":0,"x_max":0,"o":"m 269 221 l 1021 972 l 1069 924 l 318 172 l 669 42 l 83 -14 l 139 572 z "},"́":{"ha":0,"x_min":0,"x_max":0,"o":"m 131 1033 l -54 1033 l -131 683 z "},"̆":{"ha":0,"x_min":0,"x_max":0,"o":"m 0 828 b -174 1067 -76 828 -131 910 b 0 711 -201 883 -125 711 b 174 1067 125 711 201 883 b 0 828 131 910 76 828 z "},"̌":{"ha":0,"x_min":0,"x_max":0,"o":"m 0 839 l -201 1074 l -62 724 l 63 724 l 201 1074 z "},"̧":{"ha":0,"x_min":0,"x_max":0,"o":"m -64 -371 b 150 -206 28 -371 150 -292 b 18 -72 150 -135 88 -99 l 26 25 l -81 -149 b 57 -250 -10 -165 57 -197 b -18 -336 57 -292 17 -328 l -82 -246 b -150 -308 -118 -246 -150 -271 b -64 -371 -150 -343 -115 -371 z "},"̂":{"ha":0,"x_min":0,"x_max":0,"o":"m 0 913 l 201 678 l 63 1028 l -62 1028 l -201 678 z "},"̦":{"ha":0,"x_min":0,"x_max":0,"o":"m -93 -164 b -61 -228 -93 -192 -81 -215 l 26 -228 b -119 -387 18 -285 -33 -346 b 119 -197 14 -387 119 -297 b 7 -78 119 -132 78 -78 b -93 -164 -54 -78 -93 -119 z "},"̒":{"ha":0,"x_min":0,"x_max":0,"o":"m 93 825 b 61 889 93 853 81 876 l -26 889 b 119 1049 -18 946 33 1007 b -119 858 -14 1049 -119 958 b -7 739 -119 793 -78 739 b 93 825 54 739 93 781 z "},"̈":{"ha":0,"x_min":0,"x_max":0,"o":"m 132 782 b 224 871 183 782 224 821 b 132 961 224 922 183 961 b 40 871 79 961 40 922 b 132 782 40 821 79 782 z m -133 782 b -40 871 -81 782 -40 821 b -133 961 -40 922 -81 961 b -224 871 -185 961 -224 922 b -133 782 -224 821 -185 782 z "},"̇":{"ha":0,"x_min":0,"x_max":0,"o":"m 0 786 b 100 886 56 786 100 832 b 0 986 100 942 56 986 b -100 886 -56 986 -100 942 b 0 786 -100 832 -56 786 z "},"̀":{"ha":0,"x_min":0,"x_max":0,"o":"m -131 1033 l 131 683 l 54 1033 z "},"̋":{"ha":0,"x_min":0,"x_max":0,"o":"m 17 1033 l -139 1033 l -226 683 z m 226 1033 l 71 1033 l -17 683 z "},"̄":{"ha":0,"x_min":0,"x_max":0,"o":"m -150 889 l -215 800 l 150 800 l 215 889 z "},"̨":{"ha":0,"x_min":0,"x_max":0,"o":"m 115 38 b -131 -262 -7 -36 -131 -165 b -21 -372 -131 -335 -81 -372 b 131 -285 38 -372 85 -335 l 71 -285 b -22 -204 8 -285 -22 -257 b 125 21 -22 -133 44 -42 z "},"̊":{"ha":0,"x_min":0,"x_max":0,"o":"m 0 1017 b -144 874 -79 1017 -144 953 b 0 731 -144 796 -79 731 b 144 874 79 731 144 796 b 0 1017 144 953 79 1017 z m 0 958 b 86 874 49 958 86 921 b 0 789 86 826 49 789 b -86 874 -49 789 -86 826 b 0 958 -86 921 -49 958 z "},"̃":{"ha":0,"x_min":0,"x_max":0,"o":"m 143 786 l 253 1026 b 78 906 182 958 122 906 l -144 963 l -253 722 b -79 843 -183 790 -124 843 z "}}}
